<svg id="圖層_1" data-name="圖層 1" xmlns="http://www.w3.org/2000/svg" viewBox="0 0 566.07 469.35"><defs><style>.cls-1{fill:#fff;}</style></defs><path class="cls-1" d="M523.1,348.09c.1,3.87-.43,7.71-.15,11.59.31,4.27-.07,8.58.44,12.86.24,2-.52,4.22.73,6.16.09.14,0,.39,0,.59a110.35,110.35,0,0,0,.38,12.06c.24,2.29-.76,4.57,0,6.86a.92.92,0,0,1,0,.59,14,14,0,0,0-.34,4.33c0,.52.18,1.14-.19,1.54-.74.79-.53,1.72-.56,2.63a35.59,35.59,0,0,1-.82,7.42c-.52,2.09-.88,4.2-1.25,6.32-.27,1.53-.25,3.17-1,4.6s-.42,3.34-1.29,4.83a.28.28,0,0,0,.28.39c3.26-2.72,5.86-6.14,9.32-8.66s6.76-5.16,10.22-7.57,6.63-4.87,10.09-7.09c2.22-1.42,4-3.39,6.37-4.6a4.9,4.9,0,0,0,2-1.8c.73-1.36,2.06-2,3.13-2.88a29.55,29.55,0,0,0,3.78-3.45c1.17-1.31,2.75-2.08,3.77-3.62,1.9-2.89,4.58-5.16,6.69-7.92,1.78-2.34,4.13-4.27,4.81-7.34,0-.16.27-.28.38-.43a65,65,0,0,0,4.21-6.54c.94-1.65,1.72-3.36,2.56-5a29.37,29.37,0,0,0,3.16-8.53c.23-1.53,1.12-2.78,1.59-4.2s.49-3.22,1.2-4.55c1.42-2.69.8-5.83,2.21-8.46-.39-2.08.76-3.93.94-5.94.14-1.51-.18-3.19.42-4.49.8-1.76.48-3.47.63-5.2.06-.63-.25-1.35.44-1.82m0-1.59c-1.4.4-1.26,1.77-1.54,2.74-.7,2.37-2.14,4.35-3.14,6.55-.83,1.84-2.49,3.29-3.06,5.35a2.53,2.53,0,0,1-.55.81c-3,3.72-6,7.38-9,11.15-1.41,1.83-3.15,3.36-4.43,5.3a10.37,10.37,0,0,1-2,2.19,53.37,53.37,0,0,0-7.68,8.43c-1.38,1.77-3,3.22-4.52,4.87a43.55,43.55,0,0,0-3.9,4.66,16.3,16.3,0,0,1-2.19,3c-2.61,2.35-4.38,5.37-6.71,8-1.53,1.69-2.47,3.94-3.75,5.9s-2.52,3.64-3.71,5.52a42.61,42.61,0,0,0-3.11,5,8.12,8.12,0,0,1-1.16,1.59c-.43.55-1,.4-1.11-.28a2,2,0,0,1,.24-1.71,1.87,1.87,0,0,0,.45-1.08c0-1.62-.24-3.3.75-4.78-.29-2.27.71-4.36,1-6.56.52-4.12.63-8.25,1-12.37.45-4.74-.3-9.5-.34-14.25,0-.13,0-.26,0-.39-.36-3.44-1.58-6.74-1.62-10.23,0-.2,0-.45-.08-.58-1.2-1.45-.68-3.35-1.3-5s-.24-3.43-.94-5.12c-.6-1.44-.63-3.09-1.07-4.58a35.89,35.89,0,0,1-1.76-9.22c0-.59.21-1.28-.2-1.74a2.76,2.76,0,0,1-.54-2.23,9.92,9.92,0,0,0-.65-3.9,25.92,25.92,0,0,1-2.19,6,27.41,27.41,0,0,0-1.88,5.54m-70-153.17,52.89,112.32-37,135c1.27-1.13,11.91-13.66,12.37-15.5,2.42-4.41,4.75-8.85,7.13-13.28,1.6-3,2.64-6.2,4.08-9.25a69.81,69.81,0,0,0,4.35-10.85c.94-3.37,2.15-6.65,3.11-10a122.9,122.9,0,0,0,4-16.72c.73-5.27,7.12-14.39,7.72-19.69m-35.29,85.25-5.12,6.51-19.8,25.19a40.49,40.49,0,0,1-3.24,2.77c-1.91,1.29-3.57,2.88-5.34,4.32-3.6,2.94-7.45,5.55-11.08,8.45l-.54.11a4.51,4.51,0,0,1,1.91-1.91c5.1-3.58,9.57-7.93,14.25-12,2.56-2.23,4.95-4.71,7.35-7.16,5.54-5.64,10.5-12,15.63-18m-9.51,19.27c3.41-4.32,6.77-8.68,10.13-13,.28-.37.5-.78.74-1.17.14-.23.24-.48,0-.71a.88.88,0,0,0-.75-.16,1.14,1.14,0,0,0-.85.46c-1.17,1.7-2.95,2.79-4.26,4.35s-3,2.91-4.39,4.5c-1.95,2.26-8,7.89-10.26,10.06M519.68,300c0-1.77-.2-3.55-.34-5.32-.29-3.65-.72-7.3-1.24-10.93s-.76-7.17-1.44-10.73c-.77-4.06-1.85-8.06-2.5-12.15a14.6,14.6,0,0,0-1.48-5.28c.07-.5.12-1-.35-1.34-.32-1.15-.63-2.29-.94-3.44a24.1,24.1,0,0,0-.45-3.1,131,131,0,0,0-6.42-18.83c-2.17-4.72-4.37-9.43-6.76-14-2-4-4.25-7.84-6.62-11.62-1.77-2.82-3.54-5.66-5.44-8.42-2.24-3.23-4.41-6.51-6.9-9.56a10.38,10.38,0,0,0-.92-1.5c-2.45-2.8-4.6-5.85-7.06-8.64-3.13-3.55-6.21-7.14-9.54-10.49-2.48-2.49-4.93-5-7.46-7.43-1.76-1.69-3.61-3.28-5.4-4.93-1.5-1.38-3.08-2.64-4.66-3.92-1.83-1.49-3.56-3.13-5.5-4.46-4.39-3-8.86-5.89-13.34-8.76-1.81-1.17-3.7-2.23-5.59-3.28-1.49-.83-3.1-1.48-4.54-2.39a86.17,86.17,0,0,0-10.29-5.08c-2.91-1.34-5.92-2.54-8.9-3.76-4.94-2-9.94-3.93-15-5.51A142.57,142.57,0,0,0,363,110.42c-3.56-.63-7-1.79-10.63-2.18-4.77-.52-9.51-1.32-14.3-1.73-4.33-.36-8.65-.87-13-.81-6,.08-12-.16-18,.18-3,.17-5.94.37-8.84.8-5.59.84-11.24,1.23-16.78,2.37-3.87.8-7.75,1.6-11.56,2.54-6.31,1.56-12.55,3.47-18.71,5.65-4,1.4-7.87,3-11.75,4.63s-7.69,3.43-11.49,5.26c-4.46,2.15-8.74,4.62-13,7.07-2.67,1.53-5.27,3.24-7.82,5-4.55,3.13-9.12,6.2-13.43,9.67-1.95,1.57-3.81,3.26-5.84,4.72a45.55,45.55,0,0,0-4.4,3.9c-1.66,1.57-3.65,2.83-5,4.79-.2.31-.65.45-.92.73-.51.5-1.27.75-1.53,1.49-1.2,1.28-2.89,2.08-3.62,3.83a2.6,2.6,0,0,1-1,.91,4.4,4.4,0,0,0-1.55,1.51c-1,1.9-2.82,3.1-4.13,4.73s-2.74,3.16-4,4.75c-3.4,4.16-6.74,8.38-9.72,12.86-1.82,2.73-3.58,5.51-5.38,8.25s-3.23,5.72-5.12,8.41a1.87,1.87,0,0,0-.18.55c-1.39,2.91-3.26,5.56-4.54,8.55-1.68,3.92-3.79,7.67-5.31,11.65-1.37,3.55-3,7-4.12,10.65-1,3.4-2.24,6.73-3.28,10.13-1.57,5.1-2.8,10.27-4,15.47-.34,1.53-.63,3.07-1,4.6a89.41,89.41,0,0,0-1.51,10.32c-.26,2-.88,4-.56,6.06a2.38,2.38,0,0,0-.43,1.47c-.27,2.8-.49,5.59-.7,8.39-.35,4.67-.18,9.32-.11,14a80.53,80.53,0,0,0,.36,13.8c.13,1.49-.16,3.06.56,4.48-.39,1.2.14,2.35.27,3.51.38,3.53.81,7.05,1.33,10.56.59,4,1.55,7.85,2.53,11.73.61,4.81,2.26,9.34,3.68,13.94a6.16,6.16,0,0,0,.61,2.66c.92,2.53,1.93,5,2.7,7.61a47.15,47.15,0,0,0,3.12,7.61,4.23,4.23,0,0,0,.52,2.29c1.95,3.74,3,7.89,5.25,11.47a3.65,3.65,0,0,1,.55,1c.62,3,2.56,5.47,3.94,8.11a95,95,0,0,0,4.88,8.54c2.12,3.17,3.89,6.57,6.43,9.44a36.52,36.52,0,0,0,5.09,7.21c1.62,2,3.12,4,4.81,6,3.39,3.86,6.78,7.73,10.36,11.42,2.44,2.51,5,4.85,7.54,7.31,3,2.92,6.43,5.25,9.28,8.28a1,1,0,0,0,.32.23c2.09.89,3.58,2.63,5.31,4,4.16,3.24,8.53,6.16,12.9,9.08a51.7,51.7,0,0,0,6.09,3.66c1.81.86,3.45,2.12,5.26,3.09,4.47,2.4,9,4.74,13.53,7,3.15,1.53,6.48,2.57,9.58,4.16a13.12,13.12,0,0,0,2.89,1.24c3.74.85,7.08,2.82,10.83,3.67s7.21,2.51,11,3.19c3.43.62,6.71,1.91,10.17,2.5q6.6,1.11,13.21,2.26a86.58,86.58,0,0,0,14.31,1.52c11.68,0,23.39.76,35.05-.61,2-.24,4.06-.38,6.07-.77,3.67-.72,7.39-1.22,11.07-1.91a69.6,69.6,0,0,0,7.55-1.4c3-.91,6.18-1.41,9.17-2.37a144.89,144.89,0,0,0,14-4.79,12,12,0,0,1,1.78-.83c3.59-.95,6.81-2.81,10.16-4.33,3.89-1.77,7.6-3.94,11.37-6,2-1.06,3.75-2.41,5.72-3.49,1.48-.81,2.8-1.94,4.25-2.87,1.82-1.17,3.54-2.47,5.38-3.62,1.31-.82,2.41-2,3.74-2.85a23.83,23.83,0,0,0,3.19-3.09,7.88,7.88,0,0,0-4.12,1.44,29.26,29.26,0,0,1-2.92,2c-3.29,1.9-6.62,3.74-9.93,5.61-.34.19-.65.46-1,.62-3.75,1.64-7.31,3.66-11.09,5.24-4.6,1.93-9.14,4-13.86,5.68-3.78,1.34-7.6,2.54-11.46,3.66a18.05,18.05,0,0,1-3.86.82l0,0a1.31,1.31,0,0,1,.93-.68c1.7-.51,3.42-1,5.12-1.48a41.78,41.78,0,0,0,7.88-3.11,48.53,48.53,0,0,1,5.49-3.09,12.67,12.67,0,0,0,3.06-1.38c2.45-1.83,5.34-2.85,7.9-4.48,3.49-2.2,7.26-4,10.66-6.32a7.51,7.51,0,0,1,1.05-.56,54.75,54.75,0,0,0,7.41-4.83c3.57-2.55,7.17-5.07,10.7-7.69s6.54-5.29,9.69-8c1.81-1.59,3.72-3.08,5.49-4.74m69.05-136.07-2.74,21.82-1.54-13.29-55.58-152M87.53,139.54c-1.2-.33-1.51.9-2.21,1.38a24.15,24.15,0,0,0-5.74,5.67c-1.31,1.76-2.5,3.67-3.8,5.44-1.67,2.26-2.9,4.73-4.33,7.1a30.63,30.63,0,0,0-4.24,11.45,1.3,1.3,0,0,1-.14.57c-1.67,2-1.29,4.71-2.14,7-1,2.75-.83,5.77-1.51,8.65a25.3,25.3,0,0,0-.52,5.88c0,3.64,0,7.29,0,10.93a5.54,5.54,0,0,0,.05,1.58,14.3,14.3,0,0,1,.27,5.52c-.21,2,.92,3.64.91,5.59a25.2,25.2,0,0,0,.45,4.48c.28,1.46-.16,3.05.43,4.3a9.5,9.5,0,0,1,.61,4.21c0,2.49,1.26,4.83.87,7.37a.67.67,0,0,0,.11.38c1.09,1.71.58,3.56.44,5.38,0,.36-.28.76.52,1-.22-2.42,1.07-4.31,1.89-6.32.94-2.28,2.37-4.35,3.51-6.55,1.78-3.47,4.08-6.67,6.17-10,1.16-1.83,2.89-3.22,4-5.1a3,3,0,0,1,.7-.67,31.76,31.76,0,0,0,4.39-4.44,31,31,0,0,1,4.91-4.74c2.66-2.17,5.55-4.07,7.9-6.62a2.59,2.59,0,0,1,.56-.54c2.16-1.13,3.71-3.06,5.72-4.37,2.72-1.77,4.41-4.59,7-6.57a29.4,29.4,0,0,0,7.09-8.56c2.15-3.65,4.66-7.11,6.23-11.07,1.28-3.21,2.37-6.49,3.54-9.74a1.33,1.33,0,0,0,0-.4c0-.34-.07-.68-.48-.74a.49.49,0,0,0-.59.4c-.15.74-.74,1-1.29,1.41-1.67,1.14-3,2.67-4.7,3.82s-3,2.71-4.75,3.69-3.12,2.15-4.83,3c-2.18,1.07-3.83,3-5.87,4.21-5.12,3.11-9.57,7.05-14.1,10.91a16.86,16.86,0,0,1-2.69,2.26,5.22,5.22,0,0,0-2.21,2.48,7.09,7.09,0,0,1-1.8,2.58,38.92,38.92,0,0,0-5.71,6.71,17.63,17.63,0,0,1-1.31,2.21c-1.5,1.51-2.12,3.44-2.88,5.32a3.39,3.39,0,0,1-.83,1.55.75.75,0,0,1-.74.14c-.31-.1-.36-.37-.37-.63a2.61,2.61,0,0,1,0-.79c1-3.93,1-8,1.77-12a24.69,24.69,0,0,0,.59-6.46c-.27-4.37.43-8.71.39-13.07a1.58,1.58,0,0,1,.16-1c.77-.92.58-2,.57-3a66.51,66.51,0,0,1,.7-7c.17-1.7.61-3.32.91-5a53.42,53.42,0,0,1,1.09-5.8c.61-2.09.79-4.36,2.17-6.2a1.94,1.94,0,0,0,.3-1.13,7.16,7.16,0,0,1,.57-1.84c.5-1.58,2.11-2.56,2.23-4.31a.37.37,0,0,0,.14-.07s0-.07,0-.11Zm410.06,18.24a1.67,1.67,0,0,0-.78-1.3c0,.67-.14,1.26.72,1.35a7.79,7.79,0,0,0,.65,3.86,67.92,67.92,0,0,1,2.64,6.95c.49,1.31,1.27,2.4,1.86,3.62,1,2.11,2.08,4.19,3.11,6.29.68,1.38,1.9,2.34,2.74,3.55a31.45,31.45,0,0,0,3.18,4c1.42,1.48,2.89,2.89,4.28,4.41a14.75,14.75,0,0,0,2.74,2.78c1.58,1,2.76,2.37,4.31,3.36,2.25,1.44,3.91,3.64,6.19,5.1s3.94,3.56,6.23,4.94a1.3,1.3,0,0,1,.57.54c.41,1.13,1.49,1.56,2.26,2.32,3.41,3.36,7.1,6.5,9.56,10.72a21.52,21.52,0,0,0,2.44,3.32,45.86,45.86,0,0,1,5,7.47c2,3.35,3.21,7.11,4.88,10.64a13.75,13.75,0,0,0,1.36,2.93c0-1.68,0-3.13,0-4.59,0-.46-.08-1,.16-1.35a3.78,3.78,0,0,0,.56-3c-.4-2.87,1.07-5.53.9-8.36a1.12,1.12,0,0,1,.33-.7,1.7,1.7,0,0,0,.38-1.48c-.42-3.39.56-6.65.95-9.95.42-3.54.33-7.09.6-10.63a85.49,85.49,0,0,0-.28-15.42,28,28,0,0,1-.45-5.71.8.8,0,0,0-.13-.56c-.78-.74-.56-1.71-.64-2.61a6.25,6.25,0,0,0-.19-1.57,18.08,18.08,0,0,1-1.45-5.19,1.43,1.43,0,0,0-.32-.91,3.88,3.88,0,0,1-.81-2.58,2.87,2.87,0,0,0-.4-1.31,57.91,57.91,0,0,1-3-6.6,25.29,25.29,0,0,0-3.47-6.56c-.94-1.38-1.85-2.78-2.88-4.11s-1.89-2.48-2.79-3.75a70.38,70.38,0,0,0-4.63-5.33,2.72,2.72,0,0,0-2.67-1.25,6,6,0,0,0,1.46,3,2.72,2.72,0,0,1,.6,1,50,50,0,0,1,2.29,7c.48,2.68,1.55,5.19,1.61,8,.11,4.39,1.32,8.72,1.14,13.15a1.33,1.33,0,0,0,.21.94c.71.72.5,1.6.53,2.44a28.66,28.66,0,0,0,.13,4.55c.43,2.28.36,4.58.68,6.86.26,1.78-.44,3.69.72,5.37.16.23,0,.65.06,1,0,1.65,0,3.31.07,5a3.07,3.07,0,0,0,.11,1.37c1.27,2.21.66,4.78,1.43,7.08.14.39.17,1-.45,1.14s-.57-.37-.8-.68c-.86-1.12-1-2.56-1.84-3.71-1-1.54-2.41-2.9-2.9-4.8a4.22,4.22,0,0,0-.82-1.35,56.23,56.23,0,0,0-4.17-5c-2.52-2.59-4.77-5.44-7.35-8a97.67,97.67,0,0,0-11-8.77c-3.49-2.57-7.3-4.76-10.85-7.25-2.81-2-5.92-3.55-8.34-6.16-1.8-1.93-4.48-3-5.88-5.41C497.91,157.8,497.71,157.81,497.59,157.78ZM256.61,572a8,8,0,0,0,2.64.6,26.82,26.82,0,0,1,5.07.61c1.5.27,3.19-.29,4.57.89.37.32,1,0,1.3-.56.85-1.76,2.1-3.3,2.68-5.21a7.14,7.14,0,0,1,.88-1.77,87.37,87.37,0,0,1,5.3-7.92c2-2.48,3.4-5.44,5.86-7.59a34.47,34.47,0,0,0,3.53-3.42c.55-.65,1.46-.91,2.1-1.65a23,23,0,0,1,6.88-5.5c3.58-1.83,6.75-4.43,10.66-5.66,1.49-.47,3-1.31,4.53-1.07a29.36,29.36,0,0,1,10.17,3.18c.86.5,1.71,1,2.59,1.44A50.27,50.27,0,0,1,333,542.8c1.91,1.48,3.7,3.1,5.53,4.68,2.71,2.34,5.51,4.59,7.32,7.79a7.19,7.19,0,0,0,.76.91,55.24,55.24,0,0,1,5,6.78c.62,1,1.35,1.93,2,2.9.78,1.17,1.84,2.26,1.7,3.86a1.49,1.49,0,0,0,.36,1.11A9.73,9.73,0,0,1,357.3,574c.31.88.86,1,1.65,1.08s1.67-.43,2.53-.39c3.12.14,6-1.36,9.08-1.35a.88.88,0,0,0,.89-.81c-.71-.36-.57-1.35-1.24-1.86-1.33-1-2-2.53-3-3.83A44.72,44.72,0,0,0,363.5,562a86.14,86.14,0,0,0-6.36-6.46,3.52,3.52,0,0,1-.82-.86c-2-3.5-5.58-5.53-8.22-8.45-2.44-.9-3.59-3.38-5.75-4.67-1.66-1-3.09-2.39-4.73-3.44-1.33-.85-2.58-1.82-3.88-2.67-1.12-.73-1.82-2.12-3.36-2.23a.67.67,0,0,1-.67-.61c0-.57.48-.53.86-.55a60.65,60.65,0,0,1,11.43.61,8,8,0,0,1,2.53.34c2.67,1.37,5.7,1.19,8.49,2.11a35.17,35.17,0,0,1,3.83,1.29c.29.13.53.42.87.39,2.29-.19,4.16,1.15,6.16,1.83,2.76.94,5.49,2,8.28,2.84,2.56.78,5,2,7.5,2.76,3.08.92,6,2.33,9.12,3.07a19.34,19.34,0,0,1,3.41.86c2.65,1.17,5.54,1.33,8.22,2.29,1.43.52,3,.22,4.46.71a16.12,16.12,0,0,0,3.38.87,50.16,50.16,0,0,1,5.11.36,42.27,42.27,0,0,0,8.44.67c7.31.18,14.64.39,21.94-.68,2.45-.36,4.94-.39,7.3-1.25,1.5-.54,3.2-.33,4.61-1,2.14-1,4.47-1.29,6.65-2.24s4.34-1.73,6.51-2.63c1.47-.61,2.8-1.56,4.22-2.26a51.75,51.75,0,0,0,9.71-5.78c.68-.54,1.12-1.4,1.83-1.73,2.77-1.32,4.71-3.71,7.24-5.33a2.83,2.83,0,0,0,1.27-1.51c-1.19-.14-1.7,1-2.73,1.11a21.2,21.2,0,0,0-4.51,1.33c-3.33,1.24-6.63,2.35-10.23,2.22a4.42,4.42,0,0,0-1.56.27,14.73,14.73,0,0,1-4.9.48H461a3.72,3.72,0,0,1-1.38-.06c-3.21-1.4-6.78-.12-10.06-1.45a20.1,20.1,0,0,0-5-.79,24.14,24.14,0,0,1-2.95-.9c-2.66-.66-5.38-1-8-1.77-2.95-.9-6-1.65-8.91-2.65-1.52-.53-3.11-.77-4.62-1.39a35.7,35.7,0,0,0-4.79-1.66c-2.79-.67-5.61-1.19-8.38-2s-5.84-1.34-8.76-2c-1.59-.35-3.16-.88-4.73-1.13-2.19-.35-4.44-.46-6.61-.95-1.24-.28-2.67,0-3.68-.51-1.62-.88-3.37-.76-5-.93a54.42,54.42,0,0,0-9.47-.5,5.88,5.88,0,0,1-1.78-.07,27.62,27.62,0,0,0-10.21-.43,20.75,20.75,0,0,1-3.7.53,36.84,36.84,0,0,0-8.63.72c-1.22.23-2.42.59-3.6.75a101.14,101.14,0,0,0-10.12,2.18c-1.15.28-2.33.47-3.45.83-2.92.92-5.78,2-8.68,3a9.74,9.74,0,0,0-3,1c-.43.32-.86.15-1.28-.14-1.73-1.21-3.81-1.64-5.72-2.46-1.52-.64-3.15-.83-4.69-1.43a30.52,30.52,0,0,0-4.6-1.59c-1.92-.41-3.84-.85-5.78-1.19s-3.94-1.34-6.06-1.53c-1.05-.1-2.26.23-3.12-.27-1.39-.8-2.81-.6-4.23-.66-1.85-.07-3.86.38-5.52-.19a17.85,17.85,0,0,0-6.42-.58c-2.46,0-5-.63-7.36.69-.15.09-.39,0-.59,0-3.87.16-7.74-.26-11.61.74a50.83,50.83,0,0,1-6.82.82c-1.09.13-1.88.8-3,.9-3,.27-6,.77-9,1.18a1.52,1.52,0,0,0-.56.17c-2.37,1.36-5.16,1.09-7.67,2.07-1.64.64-3.64.33-5.2,1.51-.24.17-.65.08-1,.17-2.37.73-4.85,1-7.19,1.89a28.62,28.62,0,0,1-5.76,1.82,39.08,39.08,0,0,0-6.13,1.8c-2.53.83-5.15,1.22-7.68,2-2.31.7-4.81.8-7.14,1.39-2.1.54-4.23.7-6.32,1.14a10.45,10.45,0,0,1-3.33.29c-1.08-.12-1.76.83-2.81.81-2.65-.07-5.3.06-7.94,0s-5.27.62-7.75-.72a34.57,34.57,0,0,1-9.75-1.92,17.41,17.41,0,0,1-4.74-1.77,5.29,5.29,0,0,0-2.82-.63c.66,1.27,1.83,1.66,2.62,2.44a85.68,85.68,0,0,0,7.49,6,57.08,57.08,0,0,0,8.74,5.26c2.1,1.11,4.09,2.54,6.42,3.12,1.88.47,3.34,1.74,5.19,2.29a12.09,12.09,0,0,0,3.41.74,1.52,1.52,0,0,1,1.08.37,3.76,3.76,0,0,0,2,.81c1.95.23,3.78.95,5.71,1.32,1.09.21,2.2.22,3.3.47a38.61,38.61,0,0,0,5.17.83,66.44,66.44,0,0,0,10.27.52c1.92-.11,3.84,0,5.76,0a15.68,15.68,0,0,0,3.76-.08c2.88-.73,6,.37,8.73-1a62.87,62.87,0,0,0,11.8-1.77c2.35-.5,4.63-1.28,7-1.7a15.27,15.27,0,0,0,4.19-1.07,52.42,52.42,0,0,1,6.11-2.09c1.94-.68,3.74-1.7,5.74-2.24s3.81-1.3,5.73-1.9a40.47,40.47,0,0,0,5-1.73,32.09,32.09,0,0,1,5-1.69c2.06-.56,3.79-2.15,6.08-1.88,2.34-1.4,5.13-1.22,7.64-2.15,3.54-1.31,7.44-1.05,11.14-2,2.06-.5,4.35-.09,6.53-.09.34,0,.69.06.8.44a.65.65,0,0,1-.44.78,27.09,27.09,0,0,0-4,2.72c-2.14,1.57-4.25,3.19-6.44,4.68a58.27,58.27,0,0,0-8.9,7.61,5.34,5.34,0,0,1-1,1,22.61,22.61,0,0,0-4.93,4.43q-3,3.24-6,6.53c-2.15,2.39-4.27,4.8-6.39,7.21-.18.19-.44.4-.46.63-.19,1.63-1.64,2.49-2.31,3.82C257.34,571.23,256.65,571.3,256.61,572Zm224.7-140.56a.89.89,0,0,0-1,.14,41,41,0,0,0-4.42,4.12c-2.27,2.37-4.67,4.62-6.91,7a35.88,35.88,0,0,1-2.75,3.3,23.65,23.65,0,0,0-4.46,4.64,70.51,70.51,0,0,1-4.89,6,39.54,39.54,0,0,0-3.89,4.66c-1.9,3.15-3.78,6.29-5.91,9.3a76.94,76.94,0,0,0-5.07,8.87,9.64,9.64,0,0,0-1.36,3.65,5.78,5.78,0,0,1-1.06,2.72,15.55,15.55,0,0,0-2.09,4.4c-1.45,4.48-3.58,8.66-5.36,13-1,2.4-1.75,4.91-2.93,7.24a21.35,21.35,0,0,1-2.43,4c-1.38,1.66-2.05,3.69-3.33,5.44a17.62,17.62,0,0,1,5.79-1.06.88.88,0,0,0,.52-.27,2.63,2.63,0,0,1,1.89-.41h11.92c.52,0,1.1-.12,1.53.25a3.42,3.42,0,0,0,2.46.5c6.62,0,13.25,0,19.87,0,1.74,0,3.57.44,5.2-.67.23-.16.65-.08,1-.06a26.88,26.88,0,0,0,5.67-.59,53.7,53.7,0,0,0,8.37-1.76c.69-.23,1.22-.78,2-.81a12.14,12.14,0,0,0,4.29-1,92.85,92.85,0,0,0,8.7-3.63,25.44,25.44,0,0,1,3.74-2.15c1.66-.54,2.93-1.68,4.39-2.52a38.87,38.87,0,0,0,5.48-4c2.27-1.91,4.6-3.73,6.68-5.84a2,2,0,0,1,.79-.58,4.22,4.22,0,0,0,2.38-2.23c1.19-1.92,2.91-3.37,4.32-5.08a85.47,85.47,0,0,0,5.37-6.93c1.15-1.75,2-3.72,3.26-5.36s2.53-3.66,3.78-5.51a8.49,8.49,0,0,0,1.12-2.85c-2.55,1-4.06,3-5.9,4.46-1.61,1.29-3.35,2.41-5,3.66s-3.59,1.77-5.38,2.69c-4.91,2.53-10.21,4-15.45,5.67-1.66.52-3.41.89-5.09,1.24-2.94.6-5.75,1.94-8.84,1.83a.51.51,0,0,0-.37.1c-.92,1-2.51.26-3.42,1.27-2.41-.23-4.56.95-6.87,1.26-.78.11-1.59.31-2.32.34-1.3,0-2.29.84-3.55,1a30.06,30.06,0,0,0-6.56,1.24,51.16,51.16,0,0,1-8.8,2.47c-.18,0-.33.23-.51.3-2.22.91-4.48,1.72-6.64,2.75-1.88.89-3.89,1.46-5.71,2.54a34.38,34.38,0,0,1-3.2,1.93c-.53.24-1.05.31-1.4-.25s.07-.74.33-1c2.59-3,5.26-6,7.63-9.25,1-1.37,2.37-2.47,3.25-3.91,1.8-3,3.34-6.09,5.32-9a15.33,15.33,0,0,0,1.44-2.34c1.27-2.76,2.38-5.6,3.71-8.33a13.09,13.09,0,0,0,1.57-6,3.82,3.82,0,0,1,.42-1.46c.73-1.87,1.29-3.82,1.86-5.75a49.91,49.91,0,0,0,1-5.21c.25-1.29,1.13-2.41,1-3.75-.26-2.93,1.39-5.31,2.14-8A32.59,32.59,0,0,1,481.31,431.44ZM179.65,500.75a1.24,1.24,0,0,1-1.71.06,20.6,20.6,0,0,0-3.84-1.93c-1.62-.66-3-1.76-4.72-2.3-1-.33-2.3-.29-3.09-1a8.56,8.56,0,0,0-4.26-1.85c-2.94-.64-5.67-1.94-8.65-2.38-2.71-.41-5.22-1.64-8-1.9a6.7,6.7,0,0,1-2.52-.34c-2.58-1.44-5.6-1-8.27-2.14a23.1,23.1,0,0,0-4-.79c-2.41-.54-4.83-.93-7.24-1.61-2.87-.81-5.82-1.38-8.68-2.28-1-.31-2.1-.4-3-.78-2.48-1-5-1.94-7.53-2.74a10.9,10.9,0,0,1-3.94-1.72c-1.55-1.3-3.51-1.88-5.2-2.95a69.41,69.41,0,0,1-10-7.87c-.25-.23-.28-.83-1-.45,1,1.74,1.89,3.49,2.9,5.2s2.25,3,2.87,4.84a3.54,3.54,0,0,0,.57,1.25c2.75,3.2,4.84,6.93,7.94,9.85a9.71,9.71,0,0,1,2.27,2.91,8.86,8.86,0,0,0,3.28,3.64c2.53,1.6,4.23,4.06,6.56,5.86a31.38,31.38,0,0,1,3.89,3.24c1.18,1.27,3.31,1.19,4.27,2.84,0,0,.12.05.19.05.93,0,1.48.7,2.2,1.09.93.5,1.54,1.36,2.6,1.72,3,1,5.69,2.61,8.56,3.86,4,1.73,8.17,2.41,12.23,3.64a10.28,10.28,0,0,0,2.58.85,30.86,30.86,0,0,1,6.38.66,21.88,21.88,0,0,0,5.88.54c8.52-.23,17.05.31,25.58-.33a101.7,101.7,0,0,1,12.71,0c2.1.12,4.37,0,6.27,1.35a.94.94,0,0,0,1.25-.08c.12-.31-.07-.5-.22-.72a66,66,0,0,1-6.18-10.25c-1.12-2.54-3.1-4.75-3.05-7.76,0-.23-.27-.46-.34-.7-.66-2.34-2.2-4.31-2.77-6.68a8.1,8.1,0,0,0-.5-1.51c-.93-2-1.93-4-2.85-6-.35-.77-.31-1.8-.82-2.4-1.12-1.3-1.43-2.92-2.16-4.37a77.68,77.68,0,0,0-4.46-8.47c-.94-1.41-2.18-2.62-3-4.07-1.57-3-3.87-5.4-5.52-8.29-.54-.95-1.67-1.55-2.25-2.49-1.15-1.84-2.82-3.24-4.08-5-.86-1.19-2-2.09-2.92-3.19-1.69-2-3.39-4-5.08-6-1.44-1.7-3.44-2.84-4.83-4.53a43.52,43.52,0,0,0-5.87-5.65.8.8,0,0,0-.13.83,41.22,41.22,0,0,0,1.55,3.82,36.8,36.8,0,0,1,1.81,5c.49,1.48.44,3.19,1,4.75.85,2.55.72,5.26,1.47,7.87s1.28,5,2,7.55c1.08,4.09,2.94,7.82,4.59,11.65a9.67,9.67,0,0,0,1.09,2.68c1.91,2.22,2.33,5.22,4.09,7.51,1.3,1.68,2.09,3.87,3.65,5.21,2.13,1.85,2.9,4.69,5.22,6.29.68,2.31,2.71,3.52,4.21,5.16A5.05,5.05,0,0,1,179.65,500.75ZM475.5,481.08a17.66,17.66,0,0,0,3.54-1.92,19.18,19.18,0,0,1,5.7-2.93c3.18-.93,6.26-2.14,9.46-3a52.63,52.63,0,0,0,6.58-1.82c1-.4,2.2-.32,3.27-.64a79.34,79.34,0,0,1,7.81-2.35c3.08-.56,5.73-2.28,8.78-2.78.69-1,1.94-.54,2.86-1.12a25.44,25.44,0,0,1,4.59-2.11c2.27-.86,4.34-2.12,6.53-3.12,1.82-.83,3.22-2.32,4.94-3.21a32.29,32.29,0,0,0,8.27-6.2c.77-.79,1.71-1.46,2.48-2.24,2.16-2.17,4.61-4,6.32-6.69s4-5.24,6-7.92c1.57-2.17,2.93-4.47,4.53-6.61a3.9,3.9,0,0,0,1.12-2.86c-.07-.5.36-.82.63-1.19a5.28,5.28,0,0,0,.86-1.29,39.08,39.08,0,0,1,2.57-5.48c1.18-2.4,2.42-4.79,3.41-7.27,1.1-2.77,2-5.63,2.89-8.47.2-.61.7-1.06.75-1.79a19.68,19.68,0,0,1,1.75-6.12c.26-.67.78-1.46.41-2.32-.64.1-.68.57-.84.89a36.28,36.28,0,0,1-2.43,4.92c-1.9,2.72-3.55,5.65-6.08,7.86-1,.86-1.34,2.11-2.29,2.94a37.27,37.27,0,0,0-5,5,4.66,4.66,0,0,1-1.5,1.27,32.9,32.9,0,0,0-3.83,3c-1,.74-1.93,1.69-2.94,2.45-2.08,1.56-4.25,3-6.46,4.39-1.27.79-2.4,1.84-3.69,2.47-2.74,1.34-5.2,3.15-8,4.5s-5,3.46-7.88,4.65c-3.06,1.24-5.27,4.11-8.61,5-1.43,1.59-3.47,2.3-5.15,3.53-2.73,2-5.45,4-8.2,6a20,20,0,0,0-3.61,3.32,1.06,1.06,0,0,1-1.57.19c-.52-.38-.41-.85,0-1.36a7.74,7.74,0,0,0,.78-1.58c.84-1.91,1.59-3.86,2.53-5.72a15.92,15.92,0,0,0,1.09-2.72,21.32,21.32,0,0,1,2.44-6.35,1.32,1.32,0,0,0,.25-.93c-.28-2.29.63-4.38,1.09-6.53.53-2.41.55-4.88,1.22-7.3.56-2,.35-4.32.43-6.48.38-9.9-.42-19.83.5-29.72.17-1.77-.16-3.57.36-5.32a1.2,1.2,0,0,0-.32-1.39c-1.75,2.63-3.5,5.19-5.18,7.82-.77,1.21-1.38,2.51-2.2,3.71a24.42,24.42,0,0,0-2.1,4.62,25.41,25.41,0,0,1-1.81,4.1,8.54,8.54,0,0,0-1.4,2.55c-.41,2-1.56,3.72-2.18,5.65-.81,2.53-2.54,4.71-3,7.41a3.2,3.2,0,0,1-.17.77,20.42,20.42,0,0,0-1.91,7.55,1.34,1.34,0,0,1-.18.76c-.73.84-.55,1.86-.64,2.83,0,.46.06,1-.16,1.36-1.44,2.32-1.57,5.07-2,7.59-.59,3.2-1.43,6.34-2,9.54-.13.78-.15,1.58-.24,2.36-.28,2.41-1.26,4.65-1.72,7a16,16,0,0,1-.4,2.53c-.93,2.62-1.66,5.31-2.61,7.93-.58,1.55-.54,3.28-1.25,4.74-2.15,4.39-4,9-7.27,12.75C475.32,480.35,475.3,480.62,475.5,481.08ZM125.78,452.21c-.38,0-.66,0-.76-.06-1.07-1.15-2.6-1.67-3.64-2.95a13.42,13.42,0,0,0-4.07-3.63c-.45-.24-1-.33-1.37-.73-1.58-1.9-3.89-2.83-5.78-4.33-2.29-1.82-5-3.06-7.6-4.54-1.28-.73-2.5-1.61-3.76-2.32-2.85-1.59-5.71-3.18-8.46-4.92-1.27-.8-2.47-1.82-3.77-2.48a69.47,69.47,0,0,1-9.19-5.52c-1.63-1.17-3.22-2.38-5-3.4a7.94,7.94,0,0,1-2-1.27,41.2,41.2,0,0,0-4.25-3.71c-1.71-1.42-3.29-3-5-4.4a16.43,16.43,0,0,1-4.33-4.54c-1.41-2.54-3.5-4.55-5.19-6.88a54.18,54.18,0,0,1-3-4.67c-.2-.33-.2-.83-.73-.73s-.49.59-.45,1a6.11,6.11,0,0,0,.37,1.53c.62,1.45,1.13,2.94,1.72,4.4.46,1.15.61,2.38,1.12,3.54.79,1.78,1.46,3.63,2.21,5.45a46.27,46.27,0,0,0,1.89,4.71,24.74,24.74,0,0,1,2.34,5.14,32.32,32.32,0,0,0,4,8.05c1.7,2.76,3.54,5.47,5.44,8.13a84.82,84.82,0,0,0,5.93,8c2.44,2.67,5.06,5.16,7.64,7.7.4.4,1.05.5,1.48,1,2.92,3.09,6.58,5.19,10.14,7.39,2.89,1.79,6.1,3,9,4.68a23.76,23.76,0,0,0,3.8,1.53c1.94.71,3.9,1.36,5.83,2.09a62.85,62.85,0,0,0,6.28,2.16,32.7,32.7,0,0,0,3.28.62c.88.14,1.46,1,2.31,1.07,3.2.34,6.19,1.61,9.37,2a1.51,1.51,0,0,1,.9.35c.77.92,1.9.93,2.89,1.07,3.29.46,6.22,2,9.3,3,2.87,1,5.25,3,8.12,4.09.25-.54-.14-.92-.43-1.2a4.61,4.61,0,0,1-1-1.4c-1-2-2.3-3.75-3.19-5.81-.69-1.6-1.69-3.09-2.43-4.7-1.17-2.54-1.7-5.3-2.67-7.92-.22-.62-.83-1.07-.75-1.8.26-2.15-1-4-1.09-6.11a8.56,8.56,0,0,0-.77-3.24,10.51,10.51,0,0,1-.61-2.44c-.63-2.72-.31-5.66-1.84-8.18a1.35,1.35,0,0,1-.07-.78,33,33,0,0,0-.48-4.31,6.53,6.53,0,0,0-.57-2.86,12.8,12.8,0,0,1-1.33-4.89,34.87,34.87,0,0,0-2.36-7.85c-.15-.36-.45-.67-.41-1.08.21-1.95-1-3.62-1-5.52,0-1.5-1.28-2.47-1.6-3.78a50.24,50.24,0,0,0-2.64-6.75,19,19,0,0,0-2-4.4,33.46,33.46,0,0,1-2.37-4.51c-1.12-2.07-2.06-4.23-3.15-6.32a56,56,0,0,0-4.89-7.43c-.27-.36-.12-1.1-.89-1.05-.53,1.37.47,2.57.35,3.91a32.71,32.71,0,0,0,0,4,.57.57,0,0,0,.12.37c.76.84.58,1.86.58,2.84q0,14.79.07,29.59c0,.59-.18,1.27.18,1.75.75,1,.54,2.13.58,3.24a23.06,23.06,0,0,0,.25,2.74c.35,2.39,1.34,4.62,1.6,7a14,14,0,0,0,1.53,5,29.14,29.14,0,0,1,1.64,5.2,18.43,18.43,0,0,0,1.11,3.52c1,1.92,2,3.86,3,5.75A3.72,3.72,0,0,1,125.78,452.21Zm-16.16-22.16a1.42,1.42,0,0,0-.13-1.49,4.42,4.42,0,0,1-.85-2.57,7.28,7.28,0,0,0-.69-2.25,5.85,5.85,0,0,1-.6-2c-.24-2-.55-4-.91-6s-1.09-4.1-1.14-6.31c-.06-2.67-.71-5.33-.72-8a4.1,4.1,0,0,0-.53-2.64,2.45,2.45,0,0,1-.06-2.48c.46-.8.65-1.35,0-2.1a1.43,1.43,0,0,1-.17-.95c.23-2.46-.65-5,.68-7.38.14-.26,0-.66,0-1,.12-3,.21-5.92.34-8.87.22-5,.73-10,.52-15,0-1.28-.37-2.66.59-3.83a.74.74,0,0,0-.08-.93c-.71-.78-.51-1.74-.53-2.65,0-2.44.29-5-.15-7.33-.49-2.67-.75-5.39-1.29-8.06-.69-3.45-1.58-6.84-2.36-10.27-.36-1.6-1.2-3.08-1.32-4.7-.21-2.81-1.5-5.15-2.75-7.92a84.62,84.62,0,0,0-.92,9.18,1.27,1.27,0,0,1-.07.59c-1.25,2.15-1.22,4.67-1.72,7s-1.47,4.45-1.7,6.78c-.09.83-.92,1.28-.83,2.17a9.1,9.1,0,0,1-.62,3.29c-.73,2.69-1.08,5.47-1.7,8.2-1,4.37-.36,8.92-.86,13.38-.37,3.27.19,6.57.35,9.86.22,4.44,0,8.87,1.11,13.27a48.66,48.66,0,0,1,1.65,8.56,7.64,7.64,0,0,0,.77,2.41.71.71,0,0,1-.33,1c-.44.18-.76-.06-1-.43-.1-.16-.13-.37-.23-.54-1-1.69-1.87-3.39-2.68-5.18a37.47,37.47,0,0,0-4.6-6.94c-1.76-2.33-3.38-4.77-5.1-7.12s-3.26-5.07-5.58-7.08a1.58,1.58,0,0,1-.66-.95c-.08-.67-.61-1-1-1.39A15.7,15.7,0,0,1,69,368a12.33,12.33,0,0,0-2.63-3.4c-2.67-2.11-4.28-5.16-6.88-7.28-1.25-1-1.82-2.6-3-3.6-2.21-1.86-3.73-4.31-5.8-6.3-2.83-2.69-5-5.95-7.4-9.05-.44-.58-.53-1.43-1.16-1.78-1.63-.92-2.37-2.62-3.37-4A13.63,13.63,0,0,1,36,327.3a1.93,1.93,0,0,0-.26-.74,40.7,40.7,0,0,1-3.63-7.41c-.14-.34,0-1-.79-1-.36.94.7,1.48.66,2.37a44.33,44.33,0,0,0,.29,6.71c.21,2,.64,4,.73,6.05.08,1.61.9,3,1.08,4.56a18.62,18.62,0,0,0,.79,4.63c1,2.49,1.37,5.13,2.11,7.68.7,2.38,1.45,4.77,2.32,7.05a105.28,105.28,0,0,0,7.93,15.86,62,62,0,0,0,5.12,7.39c.87,1.07,1.82,2.06,2.7,3.11,1.56,1.86,2.75,4,4.36,5.82,1.1,1.26,2.6,2,3.65,3.29,1.66,2.05,3.92,3.49,5.67,5.51,1.51,1.75,3.62,3,5.49,4.41,1.61,1.23,3.38,2.28,4.86,3.64a39.56,39.56,0,0,0,5.71,4.1c2.19,1.41,4.17,3.09,6.37,4.47a76.38,76.38,0,0,1,6.47,4.72c.72.56,1.64.76,2.23,1.46,2.64,3.12,6.19,5.3,8.81,8.45A1.15,1.15,0,0,0,109.62,430.05ZM593.5,253.67c-.77,1.86-.84,3.7-1.3,5.43-.3,1.17-.37,2.45-.69,3.66-.68,2.57-2,5-1.85,7.76a2,2,0,0,1-.27.74c-.81,1.82-1.8,3.56-2.68,5.34-1.35,2.73-2.87,5.41-4.42,8.06a42.6,42.6,0,0,0-3.15,5.62c-1.47,3.75-3.72,7.06-5.72,10.51s-4.37,6.82-5.39,10.82a6.32,6.32,0,0,1-.59,1.23c-1.48,3-3,6-4.24,9-.53,1.31-1.05,2.67-1.6,4-1,2.4-1.88,4.83-2.68,7.3-.18.56-.21,1.16-.38,1.72a.71.71,0,0,1-.8.46.62.62,0,0,1-.58-.67c0-.46,0-.93,0-1.39,0-3.31,0-6.62,0-9.93,0-1.48.38-3-.66-4.39-.17-.21-.09-.64-.08-1,.11-4.7-1.07-9.21-2.15-13.72-.76-3.16-2.22-6.07-3.3-9.12a16.24,16.24,0,0,0-2.83-5.59c-1.34-1.51-1.54-3.59-2.75-5.26-1.72-2.37-3.65-4.67-4.8-7.43a1.34,1.34,0,0,0-.51-.59,4.21,4.21,0,0,1-1.55-2c-1.38-2.6-2.67-5.25-4.12-7.8-.8-1.4-1.54-2.83-2.48-4.25a10.33,10.33,0,0,1-.92,4.69c.35,3.91-.83,7.9.68,11.74a.54.54,0,0,1,0,.39c-.66,1.49.08,3,.08,4.46s.26,3.27.41,4.91c.3,3.1,1.28,6.09,1.7,9.2.24,1.83,1.3,3.59,1.8,5.47a10.56,10.56,0,0,1,.79,3.37,4,4,0,0,0,.58,2.27c1,1.55,1.15,3.35,1.8,5a9.18,9.18,0,0,0,.3.93,29.93,29.93,0,0,1,2.69,6.07,12,12,0,0,0,.57,1.88c1.07,2.3,2.4,4.5,2.5,7.14,0,.42.39.68.53,1,.62,1.63,1.58,3.27,1.68,4.95.14,2.32.69,4.55,1,6.81.19,1.25-.06,2.58.41,3.71.93,2.25.91,4.63,1,6.94.2,4.66.06,9.34.06,14.26,1.12-1.9,1.5-3.82,2.94-5.36a27.05,27.05,0,0,0,2.8-4.47c.55-.92,1.57-1.48,1.86-2.53a7.85,7.85,0,0,1,2.24-3.36c1.94-2,3.48-4.26,5.49-6.15a36.66,36.66,0,0,0,3.8-4.7c2-2.55,4.57-4.53,6.52-7.16a26.54,26.54,0,0,0,2.41-2.84c.57-1.06,2-1.59,1.89-3.07,0-.13.34-.24.41-.4a13.77,13.77,0,0,1,2.28-3.11c1-1.3,1.89-2.69,2.76-4.05a44.56,44.56,0,0,0,4-7.25c.69-1.7.64-3.64,1.62-5.19A16.29,16.29,0,0,0,592,303.9c.26-.79.06-1.75.51-2.49a10.08,10.08,0,0,0,1.38-4.67c.1-1.65,1.15-3,1-4.75a37.83,37.83,0,0,1,0-4.76,2.22,2.22,0,0,1,.28-1.52,2.89,2.89,0,0,0,.48-2.07q0-7,0-14.1c0-.46.1-1-.13-1.36-.79-1.07-.6-2.26-.62-3.43,0-1.79.31-3.7-.22-5.33C594.12,257.6,594.07,255.72,593.5,253.67ZM78.42,364.44c0-3.43,0-6.86,0-10.3a23.27,23.27,0,0,1,.3-5.52c.3-1.17-.17-2.52.78-3.57A32.11,32.11,0,0,1,81,337.19c.71-2.5,1.17-5.07,2.07-7.55a75.08,75.08,0,0,1,2.68-7.49,26.29,26.29,0,0,0,1.54-3.82c.86-2.8,2.43-5.38,2.63-8.38a.8.8,0,0,1,.1-.38c1.91-2.76,1.81-6.25,3.34-9.18,1-1.84.95-4,1.57-6,.84-2.71,1-5.61,1.62-8.4.82-3.58.54-7.33.84-11A61.34,61.34,0,0,0,97,262.11c0-.38,0-.86-.53-.9s-.58.43-.71.8a32.76,32.76,0,0,1-3.22,6.08c-1,1.62-2.23,3.11-2.84,4.92a11.08,11.08,0,0,1-2.4,4.23,30.81,30.81,0,0,0-3.65,5.27,58.44,58.44,0,0,0-4.82,8.5c-1.38,3.3-2.63,6.66-3.94,10a31.37,31.37,0,0,0-1.81,8c-.18,1.58-.8,3.14-.72,4.79a.83.83,0,0,1-.21.54,3.06,3.06,0,0,0-.5,2.27q0,8.24-.07,16.48c0,.53,0,1.06,0,1.59a.66.66,0,0,1-.55.71c-.42.08-.8,0-.94-.49a33.08,33.08,0,0,1-1.27-3.47c-.36-2-1-3.9-1.55-5.84s-1.86-3.88-2.58-5.94a16.24,16.24,0,0,0-.93-2.58c-2.37-4.3-4.37-8.78-6.48-13.2a38.61,38.61,0,0,0-3.08-5.66c-1.6-2.25-2.57-4.84-4.24-7-1-1.37-1-3.38-2.69-4.39-.14-.09-.19-.35-.23-.54a18.8,18.8,0,0,0-2.4-5.49c-1.58-2.85-2.94-5.83-4.51-8.69s-2.29-6.26-3.41-9.4c-.71-2-.39-4.16-.79-6.24-.23-1.16-.25-2.31-1-3.18-1.08,3.31-.75,6.87-1.65,10.29a20.46,20.46,0,0,0-.51,5.68c.17,5.41-.16,10.82.26,16.25.19,2.55.76,5,1,7.55a31.27,31.27,0,0,0,2.06,8.15c.35.9-.09,1.92.4,2.71.75,1.2.81,2.61,1.3,3.89a13.4,13.4,0,0,1,1.2,2.63c.27,2,1.53,3.59,2.45,5.27,1.46,2.68,3.42,5.11,4.91,7.72a69.93,69.93,0,0,0,5.88,8.06c2.11,2.74,4.41,5.33,6.73,7.9.88,1,1.53,2.12,2.46,3.05a49.13,49.13,0,0,1,3.74,3.76c.65.82,1.61,1.3,2.11,2.24,1.37,2.59,3.42,4.69,5.12,7,1.07,1.48,2.11,3,3.14,4.47S77.46,362.8,78.42,364.44Zm485.23-60.78c.41-1.86.47-3.47.92-5.05.79-2.81,2.42-5.22,3.24-8a41.87,41.87,0,0,1,3.11-6.52c1-2.11,2.29-4.12,3.21-6.27.7-1.66,1.88-3,2.61-4.63.82-1.82,1.1-3.87,2.45-5.48.49-.59.14-1.53.5-2.29a54.15,54.15,0,0,0,4.22-11.55,19.39,19.39,0,0,1,.87-3.2,27.28,27.28,0,0,0,1.77-8.4c0-.52-.12-1.18.14-1.55.83-1.14.56-2.4.62-3.63a9.44,9.44,0,0,1,.15-2.76,8.32,8.32,0,0,0,.2-4.7c-.68-2.78-.31-5.6-1-8.41-.9-3.79-1.44-7.67-2.58-11.43-.4-1.32-1.39-2.43-1.44-3.82a8.24,8.24,0,0,0-1.13-3.33,23.32,23.32,0,0,1-2-4.47,6.88,6.88,0,0,0-1.39-3.36,1.6,1.6,0,0,1-.3-.72c-.67-2.74-2.59-4.82-3.86-7.24a.49.49,0,0,0-.68-.22c-.24.15-.21.45-.22.72,0,.65.68,1,.7,1.61.07,2.89,1,5.7.88,8.62-.12,3.48,0,7,0,10.44,0,2.78-.4,5.52-.65,8.26a21.37,21.37,0,0,1-.78,5.57c-1,2.79-1.11,5.87-1.76,8.8s-.57,6.13-1.93,9a6.82,6.82,0,0,0-.51,2.3c-.25,2.94-1,5.83-.89,8.82a3.65,3.65,0,0,1-.73,2.41,2,2,0,0,0-.36,1.1c-.22,1.42-.56,2.84-.67,4.27s-.76,3.06-.85,4.58c-.18,2.89-1.22,5.68-.92,8.62a.71.71,0,0,1-.61.87c-.57.08-.73-.25-1-.74-.61-1.34-.55-2.84-1-4.16-.81-2.4-1.4-4.87-2.37-7.25s-2.32-5-2.62-7.77a2.33,2.33,0,0,0-.34-.69,73.94,73.94,0,0,0-5.53-9.76c-1.24-1.74-2.34-3.59-3.51-5.38-.25-.38-.76-.5-.9-1-.51-2-2-3.37-3.33-4.69-3.28-3.37-6.53-6.77-9.93-10-2-1.91-4.25-3.55-6.07-5.64-2.08-2.38-4.57-4.38-6.42-7a11.41,11.41,0,0,0-2.72-3.19,32.31,32.31,0,0,0,.94,4.11c.36,1.57,1.08,3,1.52,4.6.28,1,.17,2.13.69,3.06,1.15,2.07,1.57,4.42,2.46,6.59.8,2,2.41,3.84,1.88,6.27a.73.73,0,0,0,.2.54c1.44,1.83,1.78,4.17,2.87,6.17.38.7,1,1.16,1.34,1.89,1.33,2.8,2.41,5.76,4.73,8a1.09,1.09,0,0,1,.25.53,12.26,12.26,0,0,0,1.8,3.79c1.65,2.81,3.62,5.44,5.54,8.08,1.79,2.45,3.84,4.72,5,7.56.64,1.53,2,2.57,2.73,4a22.24,22.24,0,0,0,1.86,3.24c1.81,2.36,2.75,5.23,4.51,7.62a3.46,3.46,0,0,1,.76,2c-.13,2.67,1.67,4.66,2.37,7,.32,1.08.2,2.25.73,3.22a28.28,28.28,0,0,1,2.46,7.91C563.16,302.16,562.87,302.86,563.65,303.66ZM65.3,301.8c-.2-1,.46-1.63.54-2.32.34-3,2.16-5.68,1.86-8.8a2.42,2.42,0,0,1,.43-1.46,15.82,15.82,0,0,0,1.81-4.12c.75-3.3,2.7-6,4.26-8.8s3-5.43,4.45-8.21a9,9,0,0,1,1.62-2.43,10.75,10.75,0,0,0,1.66-2.18,25.79,25.79,0,0,1,1.81-2.57,65.44,65.44,0,0,0,4.27-6.1c1.9-3.09,3.88-6.15,5.66-9.32C95.08,243,97.29,241,98,238c0-.17.28-.28.38-.44.91-1.51,2-3,1.91-4.84a1.43,1.43,0,0,1,.19-.76c2-3.15,2.85-6.85,4.58-10.13.46-.86.17-1.86.63-2.67a15.18,15.18,0,0,0,1.59-4.4,29,29,0,0,1,1.89-5.76,12,12,0,0,0,.63-4.58,6.24,6.24,0,0,0-.94,1.07,21.31,21.31,0,0,1-3.09,4.22c-2,2.37-4.65,4.12-6.56,6.61a4,4,0,0,1-1.23,1.27c-2.73,1.32-4.32,4-6.67,5.75-1.88,1.43-3.28,3.53-4.93,5.31-1.86,2-3.55,4.23-5.28,6.37s-2.84,4.65-4.35,6.9-2.59,4.53-3.83,6.81c-1.61,3-2.62,6.13-4,9.15-.63,1.4-.5,3-1,4.36-.66,1.65-.61,3.42-1.33,5.05-.45,1-1.13,2.08-.91,3.36.09.52,0,1.11-.76,1.12s-.77-.56-.78-1.11a16.79,16.79,0,0,0-.65-4.62c-1-3-1-6.28-1.57-9.43-.73-3.9-1.88-7.73-2.28-11.68a67.28,67.28,0,0,0-1.6-7.22,36.72,36.72,0,0,1-.66-5.59.9.9,0,0,0-.17-.55c-.72-.69-.54-1.58-.57-2.42a10.85,10.85,0,0,0-.2-3.35c-1-2.61-1.08-5.35-1.46-8a31.32,31.32,0,0,1-.39-5.72,1.15,1.15,0,0,0-.29-.91c-.51-.47-.42-1.08-.45-1.67-.11-1.9.29-3.83-.4-5.7a.89.89,0,0,1,0-.58c.62-1.33.26-2.74.38-4.11.21-2.39-.15-4.74.6-7.19a49.62,49.62,0,0,0,1.21-7.54c-1.59,2.49-3.14,5-4.54,7.58-.93,1.71-1.49,3.61-2.55,5.26a9.86,9.86,0,0,0-1,2.32c-.63,1.93-1,3.91-1.72,5.83a36.16,36.16,0,0,0-2,6.11c-.28,1.47-.22,3.08-.88,4.41a11.17,11.17,0,0,0-1,4.73c-.07,2.11-.55,4.19-.38,6.31a1.68,1.68,0,0,1-.3.93,6.2,6.2,0,0,0-.21,4.81,9.18,9.18,0,0,1,.5,3.45c-.14,2.12.49,4.18.46,6.31a6.92,6.92,0,0,0,.54,2.87c1.29,2.69,1.51,5.67,2.41,8.47a41.75,41.75,0,0,1,2,6.91c.46,3.21,2.52,5.88,3.71,8.86,1.09,2.72,2.79,5.19,4.12,7.82a31.37,31.37,0,0,1,1.59,3.36,11.7,11.7,0,0,0,1.36,3.41c1.3,1.65,1.55,3.75,2.78,5.4a13.05,13.05,0,0,1,1.72,3.54c.89,2.51,2.51,4.78,2.51,7.6A1.33,1.33,0,0,0,65.3,301.8ZM542,181.44c-.24-2.56-1.12-4.74-1.46-7.05a52.57,52.57,0,0,0-1.9-6.78c-.91-3.22-2-6.44-3.12-9.59a14.79,14.79,0,0,0-1.54-3.8,71.07,71.07,0,0,1-4.31-7.46c-1.5-2.69-3.31-5.16-4.8-7.85a32.1,32.1,0,0,0-6.08-7.24c-.8-.78-1-2-2.22-2.45a3.62,3.62,0,0,1-1.67-1.57,17.15,17.15,0,0,0-5.49-5.23,3.4,3.4,0,0,1-1-.61,26.84,26.84,0,0,0-4.2-3.46,52.1,52.1,0,0,0-8-4.84,18.18,18.18,0,0,0-2.59-1.34c-1.66-.54-3-1.63-4.77-2.06-2.15-.53-4.2-1.41-6.29-2.13-.43-.14-.93-.43-1.19.18s.28.65.56.92a76.39,76.39,0,0,1,5.87,6.82c.55.65.88,1.48,1.44,2.12,1.67,2,2.61,4.36,4.05,6.45.78,1.13.81,2.48,1.37,3.67,1.9,4.1,4.4,7.89,6,12.12.83,2.19,2.64,3.78,3.51,6,1.46,3.72,4.62,6.28,7.37,9,2,2,3.94,4.19,6.41,5.73,1.3.81,2.27,2.09,3.66,2.79s2.65,2,4.05,2.95c.72.47,1,1.34,1.76,1.84a23.48,23.48,0,0,1,5.8,4.61,3.12,3.12,0,0,0,1.3.86,3.41,3.41,0,0,1,1.69,1.59,4.63,4.63,0,0,0,1.12,1.34,10.14,10.14,0,0,1,3.11,3.24A2.64,2.64,0,0,0,542,181.44Zm-455.31-.61c1.55-2,2.75-4,4.67-5.55,1-.75,1.87-1.64,2.78-2.49,2.2-2,4.85-3.55,6.87-5.81a4.89,4.89,0,0,1,1.38-1.1c1.84-.92,3.29-2.38,5-3.53a34.65,34.65,0,0,0,3.75-3.12c1.13-1,2.48-1.92,3.58-3a59.82,59.82,0,0,0,6.71-7.15c1.61-2.21,3.09-4.51,4.57-6.8a17.3,17.3,0,0,0,1.48-2.27,79.28,79.28,0,0,1,4.16-8.42,2.86,2.86,0,0,0,.4-1.52,2.21,2.21,0,0,1,.23-1.14c1-2,2.13-3.91,3.13-5.91a9.59,9.59,0,0,1,1.36-2.58c1.91-1.85,2.76-4.39,4.51-6.37,1.35-1.52,2.52-3.23,4-4.71a10.14,10.14,0,0,0,2.09-2.34,7.08,7.08,0,0,0-3.61.63c-2.46.86-4.86,2-7.33,2.7-2.29.66-3.74,2.65-6,3.06-1.34,1.51-3.34,2-5,3a19.7,19.7,0,0,0-3.45,2.49,47.14,47.14,0,0,1-3.84,3.25c-2.88,2.47-5.85,4.83-7.92,8.09a7.09,7.09,0,0,1-1.28,1.22c-.42.39-.83.82-1.23,1.22a35.07,35.07,0,0,0-2.41,3c-1.6,2.06-3.47,4-4.59,6.34-1.24,2.65-2.71,5.17-4.13,7.71A70,70,0,0,0,91.31,161c-.21.62-.46,1.23-.73,1.83a13.64,13.64,0,0,0-1.1,4.37,13.22,13.22,0,0,1-1.27,5.09,6,6,0,0,0-.62,2.27,13.5,13.5,0,0,1-1.16,5.11C86.27,179.94,86.33,180.3,86.73,180.83ZM47,389.66a.35.35,0,0,0-.31.4c0,.2.09.39.32.4s.31-.18.3-.39S47.24,389.7,47,389.66Zm84.45-233.33a1.1,1.1,0,0,0,.15-.31c0-.11-.11-.3-.15-.3-.22,0-.24.22-.21.39S131.39,156.26,131.46,156.33ZM573,185.61c0-.05-.06-.13-.11-.15a.2.2,0,0,0-.14.08c0,.17,0,.26.17.22S573,185.66,573,185.61Zm-32.2-45.69s0-.11-.09-.13-.08,0-.13.07l.16.2ZM135.48,527.5s0,.1,0,.12.12,0,.15,0,.11-.16,0-.2S135.53,527.48,135.48,527.5Z" transform="translate(-31.21 -105.69)"/><path class="cls-1" d="M526.64,327.56a27.41,27.41,0,0,1,1.88-5.54,25.92,25.92,0,0,0,2.19-6,9.92,9.92,0,0,1,.65,3.9,2.76,2.76,0,0,0,.54,2.23c.41.46.18,1.15.2,1.74a35.89,35.89,0,0,0,1.76,9.22c.44,1.49.47,3.14,1.07,4.58.7,1.69.37,3.57.94,5.12s.1,3.56,1.3,5c.11.13.07.38.08.58,0,3.49,1.26,6.79,1.62,10.23,0,.13,0,.26,0,.39,0,4.75.79,9.51.34,14.25-.39,4.12-.5,8.25-1,12.37-.27,2.2-1.27,4.29-1,6.56-1,1.48-.7,3.16-.75,4.78a1.87,1.87,0,0,1-.45,1.08,2,2,0,0,0-.24,1.71c.15.68.68.83,1.11.28a8.12,8.12,0,0,0,1.16-1.59,42.61,42.61,0,0,1,3.11-5c1.19-1.88,2.51-3.66,3.71-5.52s2.22-4.21,3.75-5.9c2.33-2.58,4.1-5.6,6.71-8a16.3,16.3,0,0,0,2.19-3,43.55,43.55,0,0,1,3.9-4.66c1.48-1.65,3.14-3.1,4.52-4.87a53.37,53.37,0,0,1,7.68-8.43,10.37,10.37,0,0,0,2-2.19c1.28-1.94,3-3.47,4.43-5.3,2.92-3.77,6-7.43,9-11.15a2.53,2.53,0,0,0,.55-.81c.57-2.06,2.23-3.51,3.06-5.35,1-2.2,2.44-4.18,3.14-6.55.28-1,.14-2.34,1.54-2.74v1.59c-.69.47-.38,1.19-.44,1.82-.15,1.73.17,3.44-.63,5.2-.6,1.3-.28,3-.42,4.49-.18,2-1.33,3.86-.94,5.94-1.41,2.63-.79,5.77-2.21,8.46-.71,1.33-.7,3-1.2,4.55s-1.36,2.67-1.59,4.2a29.37,29.37,0,0,1-3.16,8.53c-.84,1.69-1.62,3.4-2.56,5a65,65,0,0,1-4.21,6.54c-.11.15-.34.27-.38.43-.68,3.07-3,5-4.81,7.34-2.11,2.76-4.79,5-6.69,7.92-1,1.54-2.6,2.31-3.77,3.62a29.55,29.55,0,0,1-3.78,3.45c-1.07.86-2.4,1.52-3.13,2.88a4.9,4.9,0,0,1-2,1.8c-2.36,1.21-4.15,3.18-6.37,4.6-3.46,2.22-6.71,4.75-10.09,7.09s-6.8,5.07-10.22,7.57-6.06,5.94-9.32,8.66a.28.28,0,0,1-.28-.39c.87-1.49.5-3.31,1.29-4.83s.73-3.07,1-4.6c.37-2.12.73-4.23,1.25-6.32a35.59,35.59,0,0,0,.82-7.42c0-.91-.18-1.84.56-2.63.37-.4.17-1,.19-1.54a14,14,0,0,1,.34-4.33.92.92,0,0,0,0-.59c-.75-2.29.25-4.57,0-6.86a110.35,110.35,0,0,1-.38-12.06c0-.2.06-.45,0-.59-1.25-1.94-.49-4.11-.73-6.16-.51-4.28-.13-8.59-.44-12.86-1.38-4.51,1.94-29.3,3.69-32.12" transform="translate(-31.21 -105.69)"/><path class="cls-1" d="M256.61,572c0-.7.73-.77,1-1.24.67-1.33,2.12-2.19,2.31-3.82,0-.23.28-.44.46-.63,2.12-2.41,4.24-4.82,6.39-7.21q3-3.3,6-6.53a22.61,22.61,0,0,1,4.93-4.43,5.34,5.34,0,0,0,1-1,58.27,58.27,0,0,1,8.9-7.61c2.19-1.49,4.3-3.11,6.44-4.68a27.09,27.09,0,0,1,4-2.72.65.65,0,0,0,.44-.78c-.11-.38-.46-.44-.8-.44-2.18,0-4.47-.41-6.53.09-3.7.9-7.6.64-11.14,2-2.51.93-5.3.75-7.64,2.15-2.29-.27-4,1.32-6.08,1.88a32.09,32.09,0,0,0-5,1.69,40.47,40.47,0,0,1-5,1.73c-1.92.6-3.79,1.38-5.73,1.9s-3.8,1.56-5.74,2.24a52.42,52.42,0,0,0-6.11,2.09,15.27,15.27,0,0,1-4.19,1.07c-2.36.42-4.64,1.2-7,1.7a62.87,62.87,0,0,1-11.8,1.77c-2.77,1.42-5.85.32-8.73,1a15.68,15.68,0,0,1-3.76.08c-1.92,0-3.84-.09-5.76,0a66.44,66.44,0,0,1-10.27-.52A38.61,38.61,0,0,1,182,551c-1.1-.25-2.21-.26-3.3-.47-1.93-.37-3.76-1.09-5.71-1.32a3.76,3.76,0,0,1-2-.81,1.52,1.52,0,0,0-1.08-.37,12.09,12.09,0,0,1-3.41-.74c-1.85-.55-3.31-1.82-5.19-2.29-2.33-.58-4.32-2-6.42-3.12a57.08,57.08,0,0,1-8.74-5.26,85.68,85.68,0,0,1-7.49-6c-.79-.78-2-1.17-2.62-2.44a5.29,5.29,0,0,1,2.82.63,17.41,17.41,0,0,0,4.74,1.77,34.57,34.57,0,0,0,9.75,1.92c2.48,1.34,5.16.62,7.75.72s5.29,0,7.94,0c1,0,1.73-.93,2.81-.81a10.45,10.45,0,0,0,3.33-.29c2.09-.44,4.22-.6,6.32-1.14,2.33-.59,4.83-.69,7.14-1.39,2.53-.78,5.15-1.17,7.68-2a39.08,39.08,0,0,1,6.13-1.8,28.62,28.62,0,0,0,5.76-1.82c2.34-.9,4.82-1.16,7.19-1.89.31-.09.72,0,1-.17,1.56-1.18,3.56-.87,5.2-1.51,2.51-1,5.3-.71,7.67-2.07a1.52,1.52,0,0,1,.56-.17c3-.41,6-.91,9-1.18,1.08-.1,1.87-.77,3-.9a50.83,50.83,0,0,0,6.82-.82c3.87-1,7.74-.58,11.61-.74.2,0,.44.06.59,0,2.35-1.32,4.9-.65,7.36-.69a17.85,17.85,0,0,1,6.42.58c1.66.57,3.67.12,5.52.19,1.42.06,2.84-.14,4.23.66.86.5,2.07.17,3.12.27,2.12.19,4,1.18,6.06,1.53s3.86.78,5.78,1.19a30.52,30.52,0,0,1,4.6,1.59c1.54.6,3.17.79,4.69,1.43,1.91.82,4,1.25,5.72,2.46.42.29.85.46,1.28.14a9.74,9.74,0,0,1,3-1c2.9-.94,5.76-2,8.68-3,1.12-.36,2.3-.55,3.45-.83a101.14,101.14,0,0,1,10.12-2.18c1.18-.16,2.38-.52,3.6-.75a36.84,36.84,0,0,1,8.63-.72,20.75,20.75,0,0,0,3.7-.53,27.62,27.62,0,0,1,10.21.43,5.88,5.88,0,0,0,1.78.07,54.42,54.42,0,0,1,9.47.5c1.62.17,3.37.05,5,.93,1,.55,2.44.23,3.68.51,2.17.49,4.42.6,6.61.95,1.57.25,3.14.78,4.73,1.13,2.92.65,5.89,1.16,8.76,2s5.59,1.33,8.38,2a35.7,35.7,0,0,1,4.79,1.66c1.51.62,3.1.86,4.62,1.39,2.92,1,6,1.75,8.91,2.65,2.65.81,5.37,1.11,8,1.77a24.14,24.14,0,0,0,2.95.9,20.1,20.1,0,0,1,5,.79c3.28,1.33,6.85,0,10.06,1.45a3.72,3.72,0,0,0,1.38.06h8.14a14.73,14.73,0,0,0,4.9-.48,4.42,4.42,0,0,1,1.56-.27c3.6.13,6.9-1,10.23-2.22a21.2,21.2,0,0,1,4.51-1.33c1-.14,1.54-1.25,2.73-1.11a2.83,2.83,0,0,1-1.27,1.51c-2.53,1.62-4.47,4-7.24,5.33-.71.33-1.15,1.19-1.83,1.73A51.75,51.75,0,0,1,473,543c-1.42.7-2.75,1.65-4.22,2.26-2.17.9-4.4,1.7-6.51,2.63s-4.51,1.27-6.65,2.24c-1.41.64-3.11.43-4.61,1-2.36.86-4.85.89-7.3,1.25-7.3,1.07-14.63.86-21.94.68a42.27,42.27,0,0,1-8.44-.67,50.16,50.16,0,0,0-5.11-.36,16.12,16.12,0,0,1-3.38-.87c-1.46-.49-3-.19-4.46-.71-2.68-1-5.57-1.12-8.22-2.29a19.34,19.34,0,0,0-3.41-.86c-3.14-.74-6-2.15-9.12-3.07-2.53-.75-4.94-2-7.5-2.76-2.79-.85-5.52-1.9-8.28-2.84-2-.68-3.87-2-6.16-1.83-.34,0-.58-.26-.87-.39a35.17,35.17,0,0,0-3.83-1.29c-2.79-.92-5.82-.74-8.49-2.11a8,8,0,0,0-2.53-.34,60.65,60.65,0,0,0-11.43-.61c-.38,0-.87,0-.86.55a.67.67,0,0,0,.67.61c1.54.11,2.24,1.5,3.36,2.23,1.3.85,2.55,1.82,3.88,2.67,1.64,1,3.07,2.43,4.73,3.44,2.16,1.29,3.31,3.77,5.75,4.67,2.64,2.92,6.18,5,8.22,8.45a3.52,3.52,0,0,0,.82.86A86.14,86.14,0,0,1,363.5,562a44.72,44.72,0,0,1,3.72,4.79c1,1.3,1.66,2.81,3,3.83.67.51.53,1.5,1.24,1.86a.88.88,0,0,1-.89.81c-3.1,0-6,1.49-9.08,1.35-.86,0-1.64.45-2.53.39s-1.34-.2-1.65-1.08a9.73,9.73,0,0,0-1.62-3.13,1.49,1.49,0,0,1-.36-1.11c.14-1.6-.92-2.69-1.7-3.86-.65-1-1.38-1.9-2-2.9a55.24,55.24,0,0,0-5-6.78,7.19,7.19,0,0,1-.76-.91c-1.81-3.2-4.61-5.45-7.32-7.79-1.83-1.58-3.62-3.2-5.53-4.68a50.27,50.27,0,0,0-7.62-4.43c-.88-.46-1.73-.94-2.59-1.44a29.36,29.36,0,0,0-10.17-3.18c-1.52-.24-3,.6-4.53,1.07-3.91,1.23-7.08,3.83-10.66,5.66a23,23,0,0,0-6.88,5.5c-.64.74-1.55,1-2.1,1.65a34.47,34.47,0,0,1-3.53,3.42c-2.46,2.15-3.84,5.11-5.86,7.59a87.37,87.37,0,0,0-5.3,7.92,7.14,7.14,0,0,0-.88,1.77c-.58,1.91-1.83,3.45-2.68,5.21-.27.57-.93.88-1.3.56-1.38-1.18-3.07-.62-4.57-.89a26.82,26.82,0,0,0-5.07-.61A8,8,0,0,1,256.61,572Z" transform="translate(-31.21 -105.69)"/><path class="cls-1" d="M465.08,438.57c-2.07,2.46-12.15,13.15-14.5,15.35-1.77,1.66-3.68,3.15-5.49,4.74-3.15,2.76-6.31,5.53-9.69,8s-7.13,5.14-10.7,7.69a54.75,54.75,0,0,1-7.41,4.83,7.51,7.51,0,0,0-1.05.56c-3.4,2.36-7.17,4.12-10.66,6.32-2.56,1.63-5.45,2.65-7.9,4.48a12.67,12.67,0,0,1-3.06,1.38,48.53,48.53,0,0,0-5.49,3.09,41.78,41.78,0,0,1-7.88,3.11c-1.7.52-3.42,1-5.12,1.48a1.31,1.31,0,0,0-.93.68,4,4,0,0,0-2.22.58,2.69,2.69,0,0,0,2.2-.6,18.05,18.05,0,0,0,3.86-.82c3.86-1.12,7.68-2.32,11.46-3.66,4.72-1.67,9.26-3.75,13.86-5.68,3.78-1.58,7.34-3.6,11.09-5.24.36-.16.67-.43,1-.62,3.31-1.87,6.64-3.71,9.93-5.61a29.26,29.26,0,0,0,2.92-2,7.88,7.88,0,0,1,4.12-1.44,23.83,23.83,0,0,1-3.19,3.09c-1.33.88-2.43,2-3.74,2.85-1.84,1.15-3.56,2.45-5.38,3.62-1.45.93-2.77,2.06-4.25,2.87-2,1.08-3.75,2.43-5.72,3.49-3.77,2-7.48,4.2-11.37,6-3.35,1.52-6.57,3.38-10.16,4.33a12,12,0,0,0-1.78.83,144.89,144.89,0,0,1-14,4.79c-3,1-6.14,1.46-9.17,2.37a69.6,69.6,0,0,1-7.55,1.4c-3.68.69-7.4,1.19-11.07,1.91-2,.39-4,.53-6.07.77-11.66,1.37-23.37.64-35.05.61a86.58,86.58,0,0,1-14.31-1.52q-6.61-1.14-13.21-2.26c-3.46-.59-6.74-1.88-10.17-2.5-3.79-.68-7.28-2.35-11-3.19s-7.09-2.82-10.83-3.67a13.12,13.12,0,0,1-2.89-1.24c-3.1-1.59-6.43-2.63-9.58-4.16-4.57-2.23-9.06-4.57-13.53-7-1.81-1-3.45-2.23-5.26-3.09a51.7,51.7,0,0,1-6.09-3.66c-4.37-2.92-8.74-5.84-12.9-9.08-1.73-1.35-3.22-3.09-5.31-4a1,1,0,0,1-.32-.23c-2.85-3-6.32-5.36-9.28-8.28-2.49-2.46-5.1-4.8-7.54-7.31-3.58-3.69-7-7.56-10.36-11.42-1.69-1.93-3.19-4-4.81-6a37,37,0,0,1-5.1-7.21" transform="translate(-31.21 -105.69)"/><path class="cls-1" d="M458.94,439.88" transform="translate(-31.21 -105.69)"/><path class="cls-1" d="M178.57,430.72a44.28,44.28,0,0,0,5,5.38,8.59,8.59,0,0,1,1.42,1.64,11.24,11.24,0,0,0,2.65,3.15,44.52,44.52,0,0,1,4.74,4.47,10.41,10.41,0,0,0,2.83,2.35,44,44,0,0,0,4.71,4.45c2.37,2.15,5.1,3.9,7.52,6,2.18,1.9,4.82,3.16,7.05,5a8.65,8.65,0,0,0,3.37,2c.21.82,1,1,1.58,1.38,1.13.67,2.28,1.33,3.42,2,2.24,1.25,4,3.19,6.45,4.16a13.1,13.1,0,0,1,2.7,1.19c2.5,1.75,5.36,2.82,8,4.37a11.32,11.32,0,0,0,2.66,1.3c3.18.88,6,2.59,9.11,3.73,2,.74,4,1.6,6,2.35a6.28,6.28,0,0,0,3,.76c3.81,1.44,7.74,2.51,11.65,3.64a61,61,0,0,0,8.22,1.94,5.91,5.91,0,0,0,1.11.4q6.13,1,12.27,2a15.73,15.73,0,0,0,2.53.36c3.24,0,6.41.69,9.63.92,3.41.24,6.8.65,10.23.69,5.68.06,11.36-.08,17-.45,2.08-.23,4.19-.36,6.25-.72,1.83-.33,3.69-.22,5.5-.53,3.49-.61,6.94-1.45,10.47-1.8,4.75-.45,9.27-1.9,13.85-3.05,3.88-1,7.6-2.53,11.5-3.5a35.66,35.66,0,0,0,4.1-1.45c4.21-1.62,8.41-3.28,12.61-4.92,1.58-.62,2.9-1.81,4.65-2.05.77-1.61,2.58-1.7,3.83-2.59a25.08,25.08,0,0,0,3.3-1.79,3.61,3.61,0,0,1,3-.69,1.65,1.65,0,0,0,1.65-.3c1.28-1.17,3-1.69,4.29-2.79s3.07-1.87,4.55-2.91c2-1.42,4.19-2.56,6.3-3.82,1.9-.58,3.28-1.94,4.74-3.18h0c.58-.18,1.23-.24,1.51-.91,3.63-2.9,7.48-5.51,11.08-8.45,1.77-1.44,3.43-3,5.34-4.32" transform="translate(-31.21 -105.69)"/><path class="cls-1" d="M383.26,132.68c-1.59-1-23.24-6.39-24.45-5.91m21.66,5.84.61.07M425.64,155l0,0m29.25,19.71,1.77-.34M176,164.5c.26-.74,1-1,1.53-1.49.27-.28.72-.42.92-.73,1.3-2,3.29-3.22,5-4.79a45.55,45.55,0,0,1,4.4-3.9c2-1.46,3.89-3.15,5.84-4.72,4.31-3.47,8.88-6.54,13.43-9.67,2.55-1.76,5.15-3.47,7.82-5,4.28-2.45,8.56-4.92,13-7.07,3.8-1.83,7.61-3.64,11.49-5.26s7.78-3.23,11.75-4.63c6.16-2.18,12.4-4.09,18.71-5.65,3.81-.94,7.69-1.74,11.56-2.54,5.54-1.14,11.19-1.53,16.78-2.37,2.9-.43,5.88-.63,8.84-.8,6-.34,12-.1,18-.18,4.36-.06,8.68.45,13,.81,4.79.41,9.53,1.21,14.3,1.73,3.58.39,7.07,1.55,10.63,2.18a142.57,142.57,0,0,1,17.55,4.66c5.08,1.58,10.08,3.47,15,5.51,3,1.22,6,2.42,8.9,3.76a86.17,86.17,0,0,1,10.29,5.08c1.44.91,3,1.56,4.54,2.39,1.89,1.05,3.78,2.11,5.59,3.28,4.48,2.87,8.95,5.76,13.34,8.76,1.94,1.33,3.67,3,5.5,4.46,1.58,1.28,3.16,2.54,4.66,3.92,1.79,1.65,3.64,3.24,5.4,4.93,2.53,2.42,5,4.94,7.46,7.43,3.33,3.35,6.41,6.94,9.54,10.49,2.46,2.79,4.61,5.84,7.06,8.64a10.38,10.38,0,0,1,.92,1.5M323.94,122.91a121.37,121.37,0,0,0-13.75.29c-3.91.29-7.81.63-11.7,1.19a20,20,0,0,0-2.54.3,53.64,53.64,0,0,1-7.18,1.24,65.71,65.71,0,0,0-10.44,2c-3.91.9-7.77,2-11.59,3.23-1.88.6-3.85.95-5.65,1.71-2.18.92-4.33,1.9-6.55,2.73a37.16,37.16,0,0,0-5.75,2.61,21.91,21.91,0,0,0-4.09,1.39c-5.35,2.52-10.6,5.23-15.77,8.07a27.74,27.74,0,0,0-5.58,3.64,24.62,24.62,0,0,0-4.82,2.65c-2.33,1.8-4.88,3.32-7.25,5.09a51.9,51.9,0,0,0-5.92,4.57,23.32,23.32,0,0,1-4.59,3.31m141.52-42.89" transform="translate(-31.21 -105.69)"/><path class="cls-1" d="M481.31,431.44a32.59,32.59,0,0,0-2.73,6.39c-.75,2.65-2.4,5-2.14,8,.12,1.34-.76,2.46-1,3.75a49.91,49.91,0,0,1-1,5.21c-.57,1.93-1.13,3.88-1.86,5.75a3.82,3.82,0,0,0-.42,1.46,13.09,13.09,0,0,1-1.57,6c-1.33,2.73-2.44,5.57-3.71,8.33a15.33,15.33,0,0,1-1.44,2.34c-2,2.87-3.52,6-5.32,9-.88,1.44-2.24,2.54-3.25,3.91-2.37,3.23-5,6.21-7.63,9.25-.26.3-.6.62-.33,1s.87.49,1.4.25a34.38,34.38,0,0,0,3.2-1.93c1.82-1.08,3.83-1.65,5.71-2.54,2.16-1,4.42-1.84,6.64-2.75.18-.07.33-.27.51-.3a51.16,51.16,0,0,0,8.8-2.47,30.06,30.06,0,0,1,6.56-1.24c1.26-.14,2.25-.94,3.55-1,.73,0,1.54-.23,2.32-.34,2.31-.31,4.46-1.49,6.87-1.26.91-1,2.5-.23,3.42-1.27a.51.51,0,0,1,.37-.1c3.09.11,5.9-1.23,8.84-1.83,1.68-.35,3.43-.72,5.09-1.24,5.24-1.65,10.54-3.14,15.45-5.67,1.79-.92,3.85-1.51,5.38-2.69s3.37-2.37,5-3.66c1.84-1.49,3.35-3.48,5.9-4.46a8.49,8.49,0,0,1-1.12,2.85c-1.25,1.85-2.41,3.73-3.78,5.51s-2.11,3.61-3.26,5.36a85.47,85.47,0,0,1-5.37,6.93c-1.41,1.71-3.13,3.16-4.32,5.08a4.22,4.22,0,0,1-2.38,2.23,2,2,0,0,0-.79.58c-2.08,2.11-4.41,3.93-6.68,5.84a38.87,38.87,0,0,1-5.48,4c-1.46.84-2.73,2-4.39,2.52a25.44,25.44,0,0,0-3.74,2.15,92.85,92.85,0,0,1-8.7,3.63,12.14,12.14,0,0,1-4.29,1c-.74,0-1.27.58-2,.81a53.7,53.7,0,0,1-8.37,1.76,26.88,26.88,0,0,1-5.67.59c-.33,0-.75-.1-1,.06-1.63,1.11-3.46.66-5.2.67-6.62,0-13.25,0-19.87,0a3.42,3.42,0,0,1-2.46-.5c-.43-.37-1-.25-1.53-.25H431.63a2.63,2.63,0,0,0-1.89.41.88.88,0,0,1-.52.27,17.62,17.62,0,0,0-5.79,1.06c1.28-1.75,1.95-3.78,3.33-5.44a21.35,21.35,0,0,0,2.43-4c1.18-2.33,1.95-4.84,2.93-7.24,1.78-4.33,3.91-8.51,5.36-13a15.55,15.55,0,0,1,2.09-4.4,5.78,5.78,0,0,0,1.06-2.72,9.64,9.64,0,0,1,1.36-3.65,76.94,76.94,0,0,1,5.07-8.87c2.13-3,4-6.15,5.91-9.3a39.54,39.54,0,0,1,3.89-4.66,70.51,70.51,0,0,0,4.89-6,23.65,23.65,0,0,1,4.46-4.64,35.88,35.88,0,0,0,2.75-3.3c2.24-2.41,4.64-4.66,6.91-7a41,41,0,0,1,4.42-4.12A.89.89,0,0,1,481.31,431.44Z" transform="translate(-31.21 -105.69)"/><path class="cls-1" d="M179.65,500.75a5.05,5.05,0,0,0-1.09-1.79c-1.5-1.64-3.53-2.85-4.21-5.16-2.32-1.6-3.09-4.44-5.22-6.29-1.56-1.34-2.35-3.53-3.65-5.21-1.76-2.29-2.18-5.29-4.09-7.51a9.67,9.67,0,0,1-1.09-2.68c-1.65-3.83-3.51-7.56-4.59-11.65-.67-2.52-1.24-5.06-2-7.55s-.62-5.32-1.47-7.87c-.53-1.56-.48-3.27-1-4.75a36.8,36.8,0,0,0-1.81-5,41.22,41.22,0,0,1-1.55-3.82.8.8,0,0,1,.13-.83,43.52,43.52,0,0,1,5.87,5.65c1.39,1.69,3.39,2.83,4.83,4.53,1.69,2,3.39,4,5.08,6,.93,1.1,2.06,2,2.92,3.19,1.26,1.73,2.93,3.13,4.08,5,.58.94,1.71,1.54,2.25,2.49,1.65,2.89,3.95,5.33,5.52,8.29.78,1.45,2,2.66,3,4.07a77.68,77.68,0,0,1,4.46,8.47c.73,1.45,1,3.07,2.16,4.37.51.6.47,1.63.82,2.4.92,2,1.92,4,2.85,6a8.1,8.1,0,0,1,.5,1.51c.57,2.37,2.11,4.34,2.77,6.68.07.24.34.47.34.7-.05,3,1.93,5.22,3.05,7.76A66,66,0,0,0,204.73,518c.15.22.34.41.22.72a.94.94,0,0,1-1.25.08c-1.9-1.38-4.17-1.23-6.27-1.35a101.7,101.7,0,0,0-12.71,0c-8.53.64-17.06.1-25.58.33a21.88,21.88,0,0,1-5.88-.54,30.86,30.86,0,0,0-6.38-.66,10.28,10.28,0,0,1-2.58-.85c-4.06-1.23-8.26-1.91-12.23-3.64-2.87-1.25-5.6-2.83-8.56-3.86-1.06-.36-1.67-1.22-2.6-1.72-.72-.39-1.27-1.11-2.2-1.09-.07,0-.17,0-.19-.05-1-1.65-3.09-1.57-4.27-2.84a31.38,31.38,0,0,0-3.89-3.24c-2.33-1.8-4-4.26-6.56-5.86a8.86,8.86,0,0,1-3.28-3.64,9.71,9.71,0,0,0-2.27-2.91c-3.1-2.92-5.19-6.65-7.94-9.85a3.54,3.54,0,0,1-.57-1.25c-.62-1.81-1.91-3.23-2.87-4.84s-1.93-3.46-2.9-5.2c.77-.38.8.22,1,.45a69.41,69.41,0,0,0,10,7.87c1.69,1.07,3.65,1.65,5.2,2.95a10.9,10.9,0,0,0,3.94,1.72c2.56.8,5,1.75,7.53,2.74,1,.38,2,.47,3,.78,2.86.9,5.81,1.47,8.68,2.28,2.41.68,4.83,1.07,7.24,1.61a23.1,23.1,0,0,1,4,.79c2.67,1.15,5.69.7,8.27,2.14a6.7,6.7,0,0,0,2.52.34c2.77.26,5.28,1.49,8,1.9,3,.44,5.71,1.74,8.65,2.38a8.56,8.56,0,0,1,4.26,1.85c.79.75,2.07.71,3.09,1,1.72.54,3.1,1.64,4.72,2.3a20.6,20.6,0,0,1,3.84,1.93A1.24,1.24,0,0,0,179.65,500.75Z" transform="translate(-31.21 -105.69)"/><path class="cls-1" d="M475.5,481.08c-.2-.46-.18-.73,0-.94,3.26-3.77,5.12-8.36,7.27-12.75.71-1.46.67-3.19,1.25-4.74,1-2.62,1.68-5.31,2.61-7.93a16,16,0,0,0,.4-2.53c.46-2.37,1.44-4.61,1.72-7,.09-.78.11-1.58.24-2.36.54-3.2,1.38-6.34,2-9.54.46-2.52.59-5.27,2-7.59.22-.35.12-.9.16-1.36.09-1-.09-2,.64-2.83a1.34,1.34,0,0,0,.18-.76,20.42,20.42,0,0,1,1.91-7.55,3.2,3.2,0,0,0,.17-.77c.44-2.7,2.17-4.88,3-7.41.62-1.93,1.77-3.63,2.18-5.65a8.54,8.54,0,0,1,1.4-2.55,25.41,25.41,0,0,0,1.81-4.1,24.42,24.42,0,0,1,2.1-4.62c.82-1.2,1.43-2.5,2.2-3.71,1.68-2.63,3.43-5.19,5.18-7.82a1.2,1.2,0,0,1,.32,1.39c-.52,1.75-.19,3.55-.36,5.32-.92,9.89-.12,19.82-.5,29.72-.08,2.16.13,4.45-.43,6.48-.67,2.42-.69,4.89-1.22,7.3-.46,2.15-1.37,4.24-1.09,6.53a1.32,1.32,0,0,1-.25.93,21.32,21.32,0,0,0-2.44,6.35,15.92,15.92,0,0,1-1.09,2.72c-.94,1.86-1.69,3.81-2.53,5.72a7.74,7.74,0,0,1-.78,1.58c-.4.51-.51,1,0,1.36a1.06,1.06,0,0,0,1.57-.19,20,20,0,0,1,3.61-3.32c2.75-2,5.47-4,8.2-6,1.68-1.23,3.72-1.94,5.15-3.53,3.34-.88,5.55-3.75,8.61-5,2.9-1.19,5.16-3.31,7.88-4.65s5.21-3.16,8-4.5c1.29-.63,2.42-1.68,3.69-2.47,2.21-1.38,4.38-2.83,6.46-4.39,1-.76,2-1.71,2.94-2.45a32.9,32.9,0,0,1,3.83-3,4.66,4.66,0,0,0,1.5-1.27,37.27,37.27,0,0,1,5-5c1-.83,1.31-2.08,2.29-2.94,2.53-2.21,4.18-5.14,6.08-7.86a36.28,36.28,0,0,0,2.43-4.92c.16-.32.2-.79.84-.89.37.86-.15,1.65-.41,2.32a19.68,19.68,0,0,0-1.75,6.12c0,.73-.55,1.18-.75,1.79-.93,2.84-1.79,5.7-2.89,8.47-1,2.48-2.23,4.87-3.41,7.27a39.08,39.08,0,0,0-2.57,5.48,5.28,5.28,0,0,1-.86,1.29c-.27.37-.7.69-.63,1.19a3.9,3.9,0,0,1-1.12,2.86c-1.6,2.14-3,4.44-4.53,6.61-2,2.68-4.21,5.14-6,7.92s-4.16,4.52-6.32,6.69c-.77.78-1.71,1.45-2.48,2.24a32.29,32.29,0,0,1-8.27,6.2c-1.72.89-3.12,2.38-4.94,3.21-2.19,1-4.26,2.26-6.53,3.12a25.44,25.44,0,0,0-4.59,2.11c-.92.58-2.17.11-2.86,1.12-3,.5-5.7,2.22-8.78,2.78a79.34,79.34,0,0,0-7.81,2.35c-1.07.32-2.31.24-3.27.64a52.63,52.63,0,0,1-6.58,1.82c-3.2.86-6.28,2.07-9.46,3a19.18,19.18,0,0,0-5.7,2.93A17.66,17.66,0,0,1,475.5,481.08Z" transform="translate(-31.21 -105.69)"/><path class="cls-1" d="M125.78,452.21a3.72,3.72,0,0,0-.51-1.79c-1-1.89-2-3.83-3-5.75a18.43,18.43,0,0,1-1.11-3.52,29.14,29.14,0,0,0-1.64-5.2,14,14,0,0,1-1.53-5c-.26-2.4-1.25-4.63-1.6-7a23.06,23.06,0,0,1-.25-2.74c0-1.11.17-2.23-.58-3.24-.36-.48-.18-1.16-.18-1.75q0-14.81-.07-29.59c0-1,.18-2-.58-2.84a.57.57,0,0,1-.12-.37,32.71,32.71,0,0,1,0-4c.12-1.34-.88-2.54-.35-3.91.77-.05.62.69.89,1.05A56,56,0,0,1,120,384c1.09,2.09,2,4.25,3.15,6.32a33.46,33.46,0,0,0,2.37,4.51,19,19,0,0,1,2,4.4,50.24,50.24,0,0,1,2.64,6.75c.32,1.31,1.59,2.28,1.6,3.78,0,1.9,1.25,3.57,1,5.52,0,.41.26.72.41,1.08a34.87,34.87,0,0,1,2.36,7.85,12.8,12.8,0,0,0,1.33,4.89,6.53,6.53,0,0,1,.57,2.86,33,33,0,0,1,.48,4.31,1.35,1.35,0,0,0,.07.78c1.53,2.52,1.21,5.46,1.84,8.18a10.51,10.51,0,0,0,.61,2.44,8.56,8.56,0,0,1,.77,3.24c.11,2.08,1.35,4,1.09,6.11-.08.73.53,1.18.75,1.8,1,2.62,1.5,5.38,2.67,7.92.74,1.61,1.74,3.1,2.43,4.7.89,2.06,2.22,3.83,3.19,5.81a4.61,4.61,0,0,0,1,1.4c.29.28.68.66.43,1.2-2.87-1.06-5.25-3.1-8.12-4.09-3.08-1.06-6-2.56-9.3-3-1-.14-2.12-.15-2.89-1.07a1.51,1.51,0,0,0-.9-.35c-3.18-.43-6.17-1.7-9.37-2-.85-.09-1.43-.93-2.31-1.07a32.7,32.7,0,0,1-3.28-.62,62.85,62.85,0,0,1-6.28-2.16c-1.93-.73-3.89-1.38-5.83-2.09a23.76,23.76,0,0,1-3.8-1.53c-3-1.69-6.16-2.89-9-4.68-3.56-2.2-7.22-4.3-10.14-7.39-.43-.45-1.08-.55-1.48-1-2.58-2.54-5.2-5-7.64-7.7a84.82,84.82,0,0,1-5.93-8c-1.9-2.66-3.74-5.37-5.44-8.13a32.32,32.32,0,0,1-4-8.05,24.74,24.74,0,0,0-2.34-5.14A46.27,46.27,0,0,1,52.85,407c-.75-1.82-1.42-3.67-2.21-5.45-.51-1.16-.66-2.39-1.12-3.54-.59-1.46-1.1-2.95-1.72-4.4a6.11,6.11,0,0,1-.37-1.53c0-.37-.08-.86.45-1s.53.4.73.73a54.18,54.18,0,0,0,3,4.67c1.69,2.33,3.78,4.34,5.19,6.88A16.43,16.43,0,0,0,61.18,408c1.74,1.39,3.32,3,5,4.4a41.2,41.2,0,0,1,4.25,3.71,7.94,7.94,0,0,0,2,1.27c1.74,1,3.33,2.23,5,3.4a69.47,69.47,0,0,0,9.19,5.52c1.3.66,2.5,1.68,3.77,2.48,2.75,1.74,5.61,3.33,8.46,4.92,1.26.71,2.48,1.59,3.76,2.32,2.56,1.48,5.31,2.72,7.6,4.54,1.89,1.5,4.2,2.43,5.78,4.33.33.4.92.49,1.37.73a13.42,13.42,0,0,1,4.07,3.63c1,1.28,2.57,1.8,3.64,2.95C125.12,452.25,125.4,452.19,125.78,452.21Z" transform="translate(-31.21 -105.69)"/><path class="cls-1" d="M109.62,430.05a1.15,1.15,0,0,1-1-.59c-2.62-3.15-6.17-5.33-8.81-8.45-.59-.7-1.51-.9-2.23-1.46a76.38,76.38,0,0,0-6.47-4.72c-2.2-1.38-4.18-3.06-6.37-4.47a39.56,39.56,0,0,1-5.71-4.1c-1.48-1.36-3.25-2.41-4.86-3.64-1.87-1.43-4-2.66-5.49-4.41-1.75-2-4-3.46-5.67-5.51-1.05-1.31-2.55-2-3.65-3.29-1.61-1.84-2.8-4-4.36-5.82-.88-1-1.83-2-2.7-3.11a62,62,0,0,1-5.12-7.39,105.28,105.28,0,0,1-7.93-15.86c-.87-2.28-1.62-4.67-2.32-7.05-.74-2.55-1.12-5.19-2.11-7.68a18.62,18.62,0,0,1-.79-4.63c-.18-1.59-1-2.95-1.08-4.56-.09-2-.52-4-.73-6.05a44.33,44.33,0,0,1-.29-6.71c0-.89-1-1.43-.66-2.37.79,0,.65.63.79,1a40.7,40.7,0,0,0,3.63,7.41,1.93,1.93,0,0,1,.26.74,13.63,13.63,0,0,0,2.81,5.32c1,1.38,1.74,3.08,3.37,4,.63.35.72,1.2,1.16,1.78,2.37,3.1,4.57,6.36,7.4,9.05,2.07,2,3.59,4.44,5.8,6.3,1.17,1,1.74,2.58,3,3.6,2.6,2.12,4.21,5.17,6.88,7.28A12.33,12.33,0,0,1,69,368a15.7,15.7,0,0,0,2.8,3.22c.43.41,1,.72,1,1.39a1.58,1.58,0,0,0,.66.95c2.32,2,3.8,4.64,5.58,7.08s3.34,4.79,5.1,7.12a37.47,37.47,0,0,1,4.6,6.94c.81,1.79,1.72,3.49,2.68,5.18.1.17.13.38.23.54.23.37.55.61,1,.43a.71.71,0,0,0,.33-1,7.64,7.64,0,0,1-.77-2.41,48.66,48.66,0,0,0-1.65-8.56c-1.15-4.4-.89-8.83-1.11-13.27-.16-3.29-.72-6.59-.35-9.86.5-4.46-.13-9,.86-13.38.62-2.73,1-5.51,1.7-8.2a9.1,9.1,0,0,0,.62-3.29c-.09-.89.74-1.34.83-2.17.23-2.33,1.21-4.49,1.7-6.78s.47-4.84,1.72-7a1.27,1.27,0,0,0,.07-.59,84.62,84.62,0,0,1,.92-9.18c1.25,2.77,2.54,5.11,2.75,7.92.12,1.62,1,3.1,1.32,4.7.78,3.43,1.67,6.82,2.36,10.27.54,2.67.8,5.39,1.29,8.06.44,2.38.12,4.89.15,7.33,0,.91-.18,1.87.53,2.65a.74.74,0,0,1,.08.93c-1,1.17-.64,2.55-.59,3.83.21,5-.3,10-.52,15-.13,2.95-.22,5.91-.34,8.87,0,.33.09.73,0,1-1.33,2.36-.45,4.92-.68,7.38a1.43,1.43,0,0,0,.17.95c.62.75.43,1.3,0,2.1a2.45,2.45,0,0,0,.06,2.48,4.1,4.1,0,0,1,.53,2.64c0,2.7.66,5.36.72,8,0,2.21.77,4.21,1.14,6.31s.67,4,.91,6a5.85,5.85,0,0,0,.6,2,7.28,7.28,0,0,1,.69,2.25,4.42,4.42,0,0,0,.85,2.57A1.42,1.42,0,0,1,109.62,430.05Z" transform="translate(-31.21 -105.69)"/><path class="cls-1" d="M593.5,253.67c.57,2.05.62,3.93,1.22,5.75.53,1.63.18,3.54.22,5.33,0,1.17-.17,2.36.62,3.43.23.32.13.9.13,1.36q0,7.05,0,14.1a2.89,2.89,0,0,1-.48,2.07,2.22,2.22,0,0,0-.28,1.52,37.83,37.83,0,0,0,0,4.76c.17,1.72-.88,3.1-1,4.75a10.08,10.08,0,0,1-1.38,4.67c-.45.74-.25,1.7-.51,2.49a16.29,16.29,0,0,1-1.43,3.85c-1,1.55-.93,3.49-1.62,5.19a44.56,44.56,0,0,1-4,7.25c-.87,1.36-1.76,2.75-2.76,4.05a13.77,13.77,0,0,0-2.28,3.11c-.07.16-.42.27-.41.4.11,1.48-1.32,2-1.89,3.07a26.54,26.54,0,0,1-2.41,2.84c-1.95,2.63-4.57,4.61-6.52,7.16a36.66,36.66,0,0,1-3.8,4.7c-2,1.89-3.55,4.19-5.49,6.15a7.85,7.85,0,0,0-2.24,3.36c-.29,1.05-1.31,1.61-1.86,2.53a27.05,27.05,0,0,1-2.8,4.47c-1.44,1.54-1.82,3.46-2.94,5.36,0-4.92.14-9.6-.06-14.26-.1-2.31-.08-4.69-1-6.94-.47-1.13-.22-2.46-.41-3.71-.35-2.26-.9-4.49-1-6.81-.1-1.68-1.06-3.32-1.68-4.95-.14-.36-.52-.62-.53-1-.1-2.64-1.43-4.84-2.5-7.14a12,12,0,0,1-.57-1.88,29.93,29.93,0,0,0-2.69-6.07,9.18,9.18,0,0,1-.3-.93c-.65-1.63-.8-3.43-1.8-5a4,4,0,0,1-.58-2.27,10.56,10.56,0,0,0-.79-3.37c-.5-1.88-1.56-3.64-1.8-5.47-.42-3.11-1.4-6.1-1.7-9.2-.15-1.64-.4-3.28-.41-4.91s-.74-3-.08-4.46a.54.54,0,0,0,0-.39c-1.51-3.84-.33-7.83-.68-11.74a10.33,10.33,0,0,0,.92-4.69c.94,1.42,1.68,2.85,2.48,4.25,1.45,2.55,2.74,5.2,4.12,7.8a4.21,4.21,0,0,0,1.55,2,1.34,1.34,0,0,1,.51.59c1.15,2.76,3.08,5.06,4.8,7.43,1.21,1.67,1.41,3.75,2.75,5.26a16.24,16.24,0,0,1,2.83,5.59c1.08,3.05,2.54,6,3.3,9.12,1.08,4.51,2.26,9,2.15,13.72,0,.33-.09.76.08,1,1,1.35.64,2.91.66,4.39,0,3.31,0,6.62,0,9.93,0,.46,0,.93,0,1.39a.62.62,0,0,0,.58.67.71.71,0,0,0,.8-.46c.17-.56.2-1.16.38-1.72.8-2.47,1.65-4.9,2.68-7.3.55-1.29,1.07-2.65,1.6-4,1.25-3.07,2.76-6.05,4.24-9a6.32,6.32,0,0,0,.59-1.23c1-4,3.36-7.32,5.39-10.82s4.25-6.76,5.72-10.51a42.6,42.6,0,0,1,3.15-5.62c1.55-2.65,3.07-5.33,4.42-8.06.88-1.78,1.87-3.52,2.68-5.34a2,2,0,0,0,.27-.74c-.17-2.78,1.17-5.19,1.85-7.76.32-1.21.39-2.49.69-3.66C592.66,257.37,592.73,255.53,593.5,253.67Z" transform="translate(-31.21 -105.69)"/><path class="cls-1" d="M78.42,364.44c-1-1.64-1.94-3.14-2.91-4.55s-2.07-3-3.14-4.47c-1.7-2.35-3.75-4.45-5.12-7-.5-.94-1.46-1.42-2.11-2.24a49.13,49.13,0,0,0-3.74-3.76c-.93-.93-1.58-2.07-2.46-3.05-2.32-2.57-4.62-5.16-6.73-7.9a69.93,69.93,0,0,1-5.88-8.06c-1.49-2.61-3.45-5-4.91-7.72-.92-1.68-2.18-3.23-2.45-5.27a13.4,13.4,0,0,0-1.2-2.63c-.49-1.28-.55-2.69-1.3-3.89-.49-.79,0-1.81-.4-2.71A31.27,31.27,0,0,1,34,293c-.25-2.53-.82-5-1-7.55-.42-5.43-.09-10.84-.26-16.25a20.46,20.46,0,0,1,.51-5.68c.9-3.42.57-7,1.65-10.29.78.87.8,2,1,3.18.4,2.08.08,4.25.79,6.24,1.12,3.14,1.79,6.43,3.41,9.4s2.93,5.84,4.51,8.69a18.8,18.8,0,0,1,2.4,5.49c0,.19.09.45.23.54,1.65,1,1.66,3,2.69,4.39,1.67,2.19,2.64,4.78,4.24,7a38.61,38.61,0,0,1,3.08,5.66c2.11,4.42,4.11,8.9,6.48,13.2a16.24,16.24,0,0,1,.93,2.58c.72,2.06,2,3.86,2.58,5.94s1.19,3.87,1.55,5.84a33.08,33.08,0,0,0,1.27,3.47c.14.49.52.57.94.49a.66.66,0,0,0,.55-.71c0-.53,0-1.06,0-1.59q0-8.24.07-16.48a3.06,3.06,0,0,1,.5-2.27.83.83,0,0,0,.21-.54c-.08-1.65.54-3.21.72-4.79a31.37,31.37,0,0,1,1.81-8c1.31-3.33,2.56-6.69,3.94-10a58.44,58.44,0,0,1,4.82-8.5,30.81,30.81,0,0,1,3.65-5.27,11.08,11.08,0,0,0,2.4-4.23c.61-1.81,1.87-3.3,2.84-4.92A32.76,32.76,0,0,0,95.79,262c.13-.37.18-.85.71-.8s.48.52.53.9A61.34,61.34,0,0,1,97.4,275c-.3,3.67,0,7.42-.84,11-.64,2.79-.78,5.69-1.62,8.4-.62,2-.61,4.2-1.57,6-1.53,2.93-1.43,6.42-3.34,9.18a.8.8,0,0,0-.1.38c-.2,3-1.77,5.58-2.63,8.38a26.29,26.29,0,0,1-1.54,3.82,75.08,75.08,0,0,0-2.68,7.49c-.9,2.48-1.36,5.05-2.07,7.55a32.11,32.11,0,0,0-1.49,7.86c-1,1.05-.48,2.4-.78,3.57a23.27,23.27,0,0,0-.3,5.52C78.4,357.58,78.42,361,78.42,364.44Z" transform="translate(-31.21 -105.69)"/><path class="cls-1" d="M563.65,303.66c-.78-.8-.49-1.5-.62-2.11a28.28,28.28,0,0,0-2.46-7.91c-.53-1-.41-2.14-.73-3.22-.7-2.37-2.5-4.36-2.37-7a3.46,3.46,0,0,0-.76-2c-1.76-2.39-2.7-5.26-4.51-7.62a22.24,22.24,0,0,1-1.86-3.24c-.77-1.47-2.09-2.51-2.73-4-1.19-2.84-3.24-5.11-5-7.56-1.92-2.64-3.89-5.27-5.54-8.08a12.26,12.26,0,0,1-1.8-3.79,1.09,1.09,0,0,0-.25-.53c-2.32-2.21-3.4-5.17-4.73-8-.35-.73-1-1.19-1.34-1.89-1.09-2-1.43-4.34-2.87-6.17a.73.73,0,0,1-.2-.54c.53-2.43-1.08-4.28-1.88-6.27-.89-2.17-1.31-4.52-2.46-6.59-.52-.93-.41-2.06-.69-3.06-.44-1.55-1.16-3-1.52-4.6a32.31,32.31,0,0,1-.94-4.11,11.41,11.41,0,0,1,2.72,3.19c1.85,2.6,4.34,4.6,6.42,7,1.82,2.09,4.07,3.73,6.07,5.64,3.4,3.26,6.65,6.66,9.93,10,1.29,1.32,2.82,2.72,3.33,4.69.14.52.65.64.9,1,1.17,1.79,2.27,3.64,3.51,5.38a73.94,73.94,0,0,1,5.53,9.76,2.33,2.33,0,0,1,.34.69c.3,2.78,1.6,5.26,2.62,7.77s1.56,4.85,2.37,7.25c.44,1.32.38,2.82,1,4.16.23.49.39.82,1,.74a.71.71,0,0,0,.61-.87c-.3-2.94.74-5.73.92-8.62.09-1.52.72-3,.85-4.58s.45-2.85.67-4.27a2,2,0,0,1,.36-1.1,3.65,3.65,0,0,0,.73-2.41c-.14-3,.64-5.88.89-8.82a6.82,6.82,0,0,1,.51-2.3c1.36-2.86,1.27-6,1.93-9s.78-6,1.76-8.8a21.37,21.37,0,0,0,.78-5.57c.25-2.74.66-5.48.65-8.26,0-3.48-.16-7,0-10.44.1-2.92-.81-5.73-.88-8.62,0-.62-.72-1-.7-1.61,0-.27,0-.57.22-.72a.49.49,0,0,1,.68.22c1.27,2.42,3.19,4.5,3.86,7.24a1.6,1.6,0,0,0,.3.72,6.88,6.88,0,0,1,1.39,3.36,23.32,23.32,0,0,0,2,4.47,8.24,8.24,0,0,1,1.13,3.33c.05,1.39,1,2.5,1.44,3.82,1.14,3.76,1.68,7.64,2.58,11.43.67,2.81.3,5.63,1,8.41a8.32,8.32,0,0,1-.2,4.7,9.44,9.44,0,0,0-.15,2.76c-.06,1.23.21,2.49-.62,3.63-.26.37-.11,1-.14,1.55a27.28,27.28,0,0,1-1.77,8.4,19.39,19.39,0,0,0-.87,3.2,54.15,54.15,0,0,1-4.22,11.55c-.36.76,0,1.7-.5,2.29-1.35,1.61-1.63,3.66-2.45,5.48-.73,1.63-1.91,3-2.61,4.63-.92,2.15-2.17,4.16-3.21,6.27a41.87,41.87,0,0,0-3.11,6.52c-.82,2.77-2.45,5.18-3.24,8C564.12,300.19,564.06,301.8,563.65,303.66Z" transform="translate(-31.21 -105.69)"/><path class="cls-1" d="M65.3,301.8a1.33,1.33,0,0,1-.64-1.14c0-2.82-1.62-5.09-2.51-7.6a13.05,13.05,0,0,0-1.72-3.54c-1.23-1.65-1.48-3.75-2.78-5.4a11.7,11.7,0,0,1-1.36-3.41,31.37,31.37,0,0,0-1.59-3.36c-1.33-2.63-3-5.1-4.12-7.82-1.19-3-3.25-5.65-3.71-8.86a41.75,41.75,0,0,0-2-6.91c-.9-2.8-1.12-5.78-2.41-8.47a6.92,6.92,0,0,1-.54-2.87c0-2.13-.6-4.19-.46-6.31a9.18,9.18,0,0,0-.5-3.45,6.2,6.2,0,0,1,.21-4.81,1.68,1.68,0,0,0,.3-.93c-.17-2.12.31-4.2.38-6.31a11.17,11.17,0,0,1,1-4.73c.66-1.33.6-2.94.88-4.41a36.16,36.16,0,0,1,2-6.11c.73-1.92,1.09-3.9,1.72-5.83a9.86,9.86,0,0,1,1-2.32c1.06-1.65,1.62-3.55,2.55-5.26,1.4-2.58,3-5.09,4.54-7.58a49.62,49.62,0,0,1-1.21,7.54c-.75,2.45-.39,4.8-.6,7.19-.12,1.37.24,2.78-.38,4.11a.89.89,0,0,0,0,.58c.69,1.87.29,3.8.4,5.7,0,.59-.06,1.2.45,1.67a1.15,1.15,0,0,1,.29.91,31.32,31.32,0,0,0,.39,5.72c.38,2.69.46,5.43,1.46,8a10.85,10.85,0,0,1,.2,3.35c0,.84-.15,1.73.57,2.42a.9.9,0,0,1,.17.55,36.72,36.72,0,0,0,.66,5.59,67.28,67.28,0,0,1,1.6,7.22c.4,3.95,1.55,7.78,2.28,11.68.59,3.15.62,6.4,1.57,9.43a16.79,16.79,0,0,1,.65,4.62c0,.55,0,1.11.78,1.11s.85-.6.76-1.12c-.22-1.28.46-2.34.91-3.36.72-1.63.67-3.4,1.33-5.05.53-1.32.4-3,1-4.36,1.38-3,2.39-6.19,4-9.15,1.24-2.28,2.39-4.66,3.83-6.81s2.61-4.75,4.35-6.9,3.42-4.34,5.28-6.37c1.65-1.78,3-3.88,4.93-5.31,2.35-1.79,3.94-4.43,6.67-5.75a4,4,0,0,0,1.23-1.27c1.91-2.49,4.57-4.24,6.56-6.61a21.31,21.31,0,0,0,3.09-4.22,6.24,6.24,0,0,1,.94-1.07,12,12,0,0,1-.63,4.58,29,29,0,0,0-1.89,5.76,15.18,15.18,0,0,1-1.59,4.4c-.46.81-.17,1.81-.63,2.67-1.73,3.28-2.55,7-4.58,10.13a1.43,1.43,0,0,0-.19.76c0,1.89-1,3.33-1.91,4.84-.1.16-.34.27-.38.44-.67,2.93-2.88,5-4.29,7.46-1.78,3.17-3.76,6.23-5.66,9.32a65.44,65.44,0,0,1-4.27,6.1,25.79,25.79,0,0,0-1.81,2.57,10.75,10.75,0,0,1-1.66,2.18,9,9,0,0,0-1.62,2.43c-1.4,2.78-3,5.48-4.45,8.21s-3.51,5.5-4.26,8.8a15.82,15.82,0,0,1-1.81,4.12,2.42,2.42,0,0,0-.43,1.46c.3,3.12-1.52,5.8-1.86,8.8C65.76,300.17,65.1,300.83,65.3,301.8Z" transform="translate(-31.21 -105.69)"/><path class="cls-1" d="M497.59,157.77c.12,0,.32,0,.37.11,1.4,2.42,4.08,3.48,5.88,5.41,2.42,2.61,5.53,4.19,8.34,6.16,3.55,2.49,7.36,4.68,10.85,7.25a97.67,97.67,0,0,1,11,8.77c2.58,2.54,4.83,5.39,7.35,8a56.23,56.23,0,0,1,4.17,5,4.22,4.22,0,0,1,.82,1.35c.49,1.9,1.85,3.26,2.9,4.8.79,1.15,1,2.59,1.84,3.71.23.31.29.8.8.68s.59-.75.45-1.14c-.77-2.3-.16-4.87-1.43-7.08a3.07,3.07,0,0,1-.11-1.37c0-1.65-.05-3.31-.07-5,0-.33.1-.75-.06-1-1.16-1.68-.46-3.59-.72-5.37-.32-2.28-.25-4.58-.68-6.86a28.66,28.66,0,0,1-.13-4.55c0-.84.18-1.72-.53-2.44a1.33,1.33,0,0,1-.21-.94c.18-4.43-1-8.76-1.14-13.15-.06-2.82-1.13-5.33-1.61-8a50,50,0,0,0-2.29-7,2.72,2.72,0,0,0-.6-1,6,6,0,0,1-1.46-3,2.72,2.72,0,0,1,2.67,1.25,70.38,70.38,0,0,1,4.63,5.33c.9,1.27,1.86,2.54,2.79,3.75s1.94,2.73,2.88,4.11a25.29,25.29,0,0,1,3.47,6.56,57.91,57.91,0,0,0,3,6.6,2.87,2.87,0,0,1,.4,1.31,3.88,3.88,0,0,0,.81,2.58,1.43,1.43,0,0,1,.32.91,18.08,18.08,0,0,0,1.45,5.19,6.25,6.25,0,0,1,.19,1.57c.08.9-.14,1.87.64,2.61a.8.8,0,0,1,.13.56,28,28,0,0,0,.45,5.71,85.49,85.49,0,0,1,.28,15.42c-.27,3.54-.18,7.09-.6,10.63-.39,3.3-1.37,6.56-.95,9.95a1.7,1.7,0,0,1-.38,1.48,1.12,1.12,0,0,0-.33.7c.17,2.83-1.3,5.49-.9,8.36a3.78,3.78,0,0,1-.56,3c-.24.31-.16.89-.16,1.35,0,1.46,0,2.91,0,4.59a13.75,13.75,0,0,1-1.36-2.93c-1.67-3.53-2.91-7.29-4.88-10.64a45.86,45.86,0,0,0-5-7.47,21.52,21.52,0,0,1-2.44-3.32c-2.46-4.22-6.15-7.36-9.56-10.72-.77-.76-1.85-1.19-2.26-2.32a1.3,1.3,0,0,0-.57-.54c-2.29-1.38-4-3.5-6.23-4.94s-3.94-3.66-6.19-5.1c-1.55-1-2.73-2.39-4.31-3.36A14.75,14.75,0,0,1,516,190.5c-1.39-1.52-2.86-2.93-4.28-4.41a31.45,31.45,0,0,1-3.18-4c-.84-1.21-2.06-2.17-2.74-3.55-1-2.1-2.1-4.18-3.11-6.29-.59-1.22-1.37-2.31-1.86-3.62a67.92,67.92,0,0,0-2.64-6.95,7.79,7.79,0,0,1-.65-3.86Z" transform="translate(-31.21 -105.69)"/><path class="cls-1" d="M87.53,139.54" transform="translate(-31.21 -105.69)"/><path class="cls-1" d="M84.72,145.67a1.94,1.94,0,0,1-.3,1.13c-1.38,1.84-1.56,4.11-2.17,6.2a53.42,53.42,0,0,0-1.09,5.8c-.3,1.65-.74,3.27-.91,5a66.51,66.51,0,0,0-.7,7c0,1,.2,2.11-.57,3a1.58,1.58,0,0,0-.16,1c0,4.36-.66,8.7-.39,13.07a24.69,24.69,0,0,1-.59,6.46c-.82,4-.77,8.07-1.77,12a2.61,2.61,0,0,0,0,.79c0,.26.06.53.37.63a.75.75,0,0,0,.74-.14,3.39,3.39,0,0,0,.83-1.55c.76-1.88,1.38-3.81,2.88-5.32a17.63,17.63,0,0,0,1.31-2.21,38.92,38.92,0,0,1,5.71-6.71,7.09,7.09,0,0,0,1.8-2.58,5.22,5.22,0,0,1,2.21-2.48,16.86,16.86,0,0,0,2.69-2.26c4.53-3.86,9-7.8,14.1-10.91,2-1.25,3.69-3.14,5.87-4.21,1.71-.85,3.18-2.06,4.83-3s3.11-2.56,4.75-3.69,3-2.68,4.7-3.82c.55-.37,1.14-.67,1.29-1.41a.49.49,0,0,1,.59-.4c.41.06.48.4.48.74a1.33,1.33,0,0,1,0,.4c-1.17,3.25-2.26,6.53-3.54,9.74-1.57,4-4.08,7.42-6.23,11.07a29.4,29.4,0,0,1-7.09,8.56c-2.55,2-4.24,4.8-7,6.57-2,1.31-3.56,3.24-5.72,4.37a2.59,2.59,0,0,0-.56.54c-2.35,2.55-5.24,4.45-7.9,6.62a31,31,0,0,0-4.91,4.74,31.76,31.76,0,0,1-4.39,4.44,3,3,0,0,0-.7.67c-1.11,1.88-2.84,3.27-4,5.1-2.09,3.3-4.39,6.5-6.17,10-1.14,2.2-2.57,4.27-3.51,6.55-.82,2-2.11,3.9-1.89,6.32-.8-.26-.54-.66-.52-1,.14-1.82.65-3.67-.44-5.38a.67.67,0,0,1-.11-.38c.39-2.54-.84-4.88-.87-7.37a9.5,9.5,0,0,0-.61-4.21c-.59-1.25-.15-2.84-.43-4.3a25.2,25.2,0,0,1-.45-4.48c0-2-1.12-3.61-.91-5.59a14.3,14.3,0,0,0-.27-5.52,5.54,5.54,0,0,1-.05-1.58c0-3.64,0-7.29,0-10.93a25.3,25.3,0,0,1,.52-5.88c.68-2.88.5-5.9,1.51-8.65.85-2.32.47-5,2.14-7a1.3,1.3,0,0,0,.14-.57,30.63,30.63,0,0,1,4.24-11.45c1.43-2.37,2.66-4.84,4.33-7.1,1.3-1.77,2.49-3.68,3.8-5.44" transform="translate(-31.21 -105.69)"/><path class="cls-1" d="M162.62,211.09a6.64,6.64,0,0,1-.4,1.11c-1.8,3.13-3.84,6.14-5.38,9.4-1.31,2.77-3.49,5.12-3.94,8.34-.17,1.2-1.32,2.05-1.8,3.24-1.09,2.75-2.61,5.34-3.54,8.14s-2.14,5.48-3,8.32-1.92,5.88-2.92,8.8c-.77,2.24-1.06,4.6-1.71,6.86a93.15,93.15,0,0,0-2.51,10.95c-1.18,4.27-4,36-3.44,38.82" transform="translate(-31.21 -105.69)"/><path class="cls-1" d="M116.93,287.73c-.32-2.06.3-4.06.56-6.06A89.41,89.41,0,0,1,119,271.35c.39-1.53.68-3.07,1-4.6,1.17-5.2,2.4-10.37,4-15.47,1-3.4,2.26-6.73,3.28-10.13,1.1-3.67,2.75-7.1,4.12-10.65,1.52-4,3.63-7.73,5.31-11.65,1.28-3,3.15-5.64,4.54-8.55" transform="translate(-31.21 -105.69)"/><path class="cls-1" d="M542,181.44a2.64,2.64,0,0,1-1.57-1.23,10.14,10.14,0,0,0-3.11-3.24,4.63,4.63,0,0,1-1.12-1.34,3.41,3.41,0,0,0-1.69-1.59,3.12,3.12,0,0,1-1.3-.86,23.48,23.48,0,0,0-5.8-4.61c-.77-.5-1-1.37-1.76-1.84-1.4-.91-2.54-2.18-4.05-2.95s-2.36-2-3.66-2.79c-2.47-1.54-4.39-3.74-6.41-5.73-2.75-2.71-5.91-5.27-7.37-9-.87-2.23-2.68-3.82-3.51-6-1.62-4.23-4.12-8-6-12.12-.56-1.19-.59-2.54-1.37-3.67-1.44-2.09-2.38-4.49-4.05-6.45-.56-.64-.89-1.47-1.44-2.12a76.39,76.39,0,0,0-5.87-6.82c-.28-.27-.77-.44-.56-.92s.76-.32,1.19-.18c2.09.72,4.14,1.6,6.29,2.13,1.73.43,3.11,1.52,4.77,2.06a18.18,18.18,0,0,1,2.59,1.34,52.1,52.1,0,0,1,8,4.84,26.84,26.84,0,0,1,4.2,3.46,3.4,3.4,0,0,0,1,.61,17.15,17.15,0,0,1,5.49,5.23,3.62,3.62,0,0,0,1.67,1.57c1.18.41,1.42,1.67,2.22,2.45a32.1,32.1,0,0,1,6.08,7.24c1.49,2.69,3.3,5.16,4.8,7.85a71.07,71.07,0,0,0,4.31,7.46,14.79,14.79,0,0,1,1.54,3.8c1.16,3.15,2.21,6.37,3.12,9.59a52.57,52.57,0,0,1,1.9,6.78C540.92,176.7,541.8,178.88,542,181.44Z" transform="translate(-31.21 -105.69)"/><path class="cls-1" d="M86.73,180.83c-.4-.53-.46-.89-.3-1.18a13.5,13.5,0,0,0,1.16-5.11,6,6,0,0,1,.62-2.27,13.22,13.22,0,0,0,1.27-5.09,13.64,13.64,0,0,1,1.1-4.37c.27-.6.52-1.21.73-1.83a70,70,0,0,1,5.22-11.17c1.42-2.54,2.89-5.06,4.13-7.71,1.12-2.39,3-4.28,4.59-6.34a35.07,35.07,0,0,1,2.41-3c.4-.4.81-.83,1.23-1.22a7.09,7.09,0,0,0,1.28-1.22c2.07-3.26,5-5.62,7.92-8.09a47.14,47.14,0,0,0,3.84-3.25,19.7,19.7,0,0,1,3.45-2.49c1.62-1.08,3.62-1.53,5-3,2.3-.41,3.75-2.4,6-3.06,2.47-.72,4.87-1.84,7.33-2.7a7.08,7.08,0,0,1,3.61-.63,10.14,10.14,0,0,1-2.09,2.34c-1.44,1.48-2.61,3.19-4,4.71-1.75,2-2.6,4.52-4.51,6.37A9.59,9.59,0,0,0,135.4,123c-1,2-2.08,3.94-3.13,5.91a2.21,2.21,0,0,0-.23,1.14,2.86,2.86,0,0,1-.4,1.52,79.28,79.28,0,0,0-4.16,8.42,17.3,17.3,0,0,1-1.48,2.27c-1.48,2.29-3,4.59-4.57,6.8a59.82,59.82,0,0,1-6.71,7.15c-1.1,1.09-2.45,2-3.58,3a34.65,34.65,0,0,1-3.75,3.12c-1.67,1.15-3.12,2.61-5,3.53a4.89,4.89,0,0,0-1.38,1.1c-2,2.26-4.67,3.77-6.87,5.81-.91.85-1.82,1.74-2.78,2.49C89.48,176.79,88.28,178.84,86.73,180.83Z" transform="translate(-31.21 -105.69)"/><path class="cls-1" d="M141.24,210.3a1.87,1.87,0,0,1,.18-.55c1.89-2.69,3.32-5.65,5.12-8.41s3.56-5.52,5.38-8.25c3-4.48,6.32-8.7,9.72-12.86,1.3-1.59,2.76-3.15,4-4.75s3.12-2.83,4.13-4.73a4.4,4.4,0,0,1,1.55-1.51,2.6,2.6,0,0,0,1-.91c.73-1.75,2.42-2.55,3.62-3.83" transform="translate(-31.21 -105.69)"/><path class="cls-1" d="M200.77,167c-.59,1.1-1.78,1.69-2.4,2.77-1.3,1-2.71,1.89-3.91,3-4.85,4.49-9.18,9.49-13.83,14.18a4.14,4.14,0,0,0-.57.8,18.47,18.47,0,0,1-3.28,4.18,4.29,4.29,0,0,0-1.53,2c-.71.09-.94.73-1.23,1.19-2.47,3.87-5.58,7.29-8,11.19a26.06,26.06,0,0,1-3.4,4.8" transform="translate(-31.21 -105.69)"/><path class="cls-1" d="M152.41,428.37c-2.53-2.87-4.3-6.27-6.42-9.44a95,95,0,0,1-4.88-8.54c-1.38-2.64-3.32-5.08-3.94-8.11a3.65,3.65,0,0,0-.55-1c-2.26-3.58-3.3-7.73-5.25-11.47a4.23,4.23,0,0,1-.52-2.29" transform="translate(-31.21 -105.69)"/><path class="cls-1" d="M151.88,389.05a8.34,8.34,0,0,1,.87,1.53c1.17,3.51,3.3,6.53,4.95,9.79a2.54,2.54,0,0,0,1.64,1.57,2.87,2.87,0,0,1-.28.48c-.57.7-.32,1,.49,1.06.17,0,.32.16.48.25a7.45,7.45,0,0,0,1.41,3c.68,1.05,1.38,2.09,2.08,3.12,1.92,2.83,3.82,5.67,5.77,8.47,1.35,1.94,3.27,3.47,4.2,5.69a10.66,10.66,0,0,0,2.33,3.36,19.61,19.61,0,0,1,2.76,3.34" transform="translate(-31.21 -105.69)"/><path class="cls-1" d="M120.74,355.65c-1-3.88-1.94-7.77-2.53-11.73-.52-3.51-.95-7-1.33-10.56-.13-1.16-.66-2.31-.27-3.51" transform="translate(-31.21 -105.69)"/><path class="cls-1" d="M135.52,331.09c-.12,3.39,1,6.59,1.39,9.9s1.5,6.63,1.93,10a27.94,27.94,0,0,0,1.09,4,4.1,4.1,0,0,1,.38,1.92" transform="translate(-31.21 -105.69)"/><path class="cls-1" d="M130.85,387.47a47.15,47.15,0,0,1-3.12-7.61c-.77-2.58-1.78-5.08-2.7-7.61a6.16,6.16,0,0,1-.61-2.66" transform="translate(-31.21 -105.69)"/><path class="cls-1" d="M144.64,371.2c.68,2.4,1.85,4.6,2.58,7a77.45,77.45,0,0,0,3.41,8,12.69,12.69,0,0,1,1.25,2.88" transform="translate(-31.21 -105.69)"/><path class="cls-1" d="M116.61,329.85c-.72-1.42-.43-3-.56-4.48a80.53,80.53,0,0,1-.36-13.8" transform="translate(-31.21 -105.69)"/><path class="cls-1" d="M134,315.07c.18,2.87.44,5.75.68,8.62.2,2.48.64,4.93.82,7.4" transform="translate(-31.21 -105.69)"/><path class="cls-1" d="M515.35,326.38,511,250.78l.39,0c.31,1.15.62,2.29.94,3.44-.08.5-.18,1,.35,1.34a14.6,14.6,0,0,1,1.48,5.28c.65,4.09,1.73,8.09,2.5,12.15.68,3.56.93,7.16,1.44,10.73s.95,7.28,1.24,10.93c.14,1.77.32,3.55.34,5.32.07,5.95-4.11,20.44-4.33,26.39" transform="translate(-31.21 -105.69)"/><path class="cls-1" d="M124.42,369.59c-1.42-4.6-3.07-9.13-3.68-13.94" transform="translate(-31.21 -105.69)"/><path class="cls-1" d="M140.31,356.9a9,9,0,0,0,.48,2.71c1.2,3.69,2.32,7.42,3.81,11a1.85,1.85,0,0,1,0,.58" transform="translate(-31.21 -105.69)"/><path class="cls-1" d="M516.89,339.67" transform="translate(-31.21 -105.69)"/><path class="cls-1" d="M497.53,157.83c-.86-.09-.73-.68-.72-1.35a1.67,1.67,0,0,1,.78,1.29Z" transform="translate(-31.21 -105.69)"/><path class="cls-1" d="M434,459.78a.85.85,0,0,1,1-.8l.54-.11C435.2,459.54,434.55,459.6,434,459.78Z" transform="translate(-31.21 -105.69)"/><path class="cls-1" d="M47,389.66c.23,0,.3.21.31.41s-.07.4-.3.39-.32-.2-.32-.4A.35.35,0,0,1,47,389.66Z" transform="translate(-31.21 -105.69)"/><path class="cls-1" d="M512.68,255.58c-.53-.34-.43-.84-.35-1.34C512.8,254.59,512.75,255.08,512.68,255.58Z" transform="translate(-31.21 -105.69)"/><path class="cls-1" d="M131.46,156.33c-.07-.07-.19-.14-.21-.22s0-.36.21-.39c0,0,.15.19.15.3A1.1,1.1,0,0,1,131.46,156.33Z" transform="translate(-31.21 -105.69)"/><path class="cls-1" d="M573,185.61s0,.14-.08.15-.21,0-.17-.22a.2.2,0,0,1,.14-.08S573,185.56,573,185.61Z" transform="translate(-31.21 -105.69)"/><path class="cls-1" d="M540.78,139.92l-.06.14-.16-.2c.05,0,.1-.08.13-.07S540.75,139.87,540.78,139.92Z" transform="translate(-31.21 -105.69)"/><path class="cls-1" d="M135.48,527.5c.05,0,.1-.06.14,0s.16.12,0,.2-.11,0-.15,0S135.49,527.54,135.48,527.5Z" transform="translate(-31.21 -105.69)"/><path class="cls-1" d="M472.42,404.2c-3-.32-5.95-.11-8.92-.27-3.69-.2-7.4-.07-11.1-.1q-11.61-.07-23.22-.17c-9.13-.09-18.25-.21-27.38-.31l-1.18,0-25-.38.7-1.2q21.7-37.86,43.41-75.72c3-5.22,5.94-10.47,8.91-15.7l.51-.07c1.45,3.13,3.3,6,5,9q18.69,32.54,37.44,65,5.25,9.12,10.5,18.23c.25.44.72.81.51,1.63Z" transform="translate(-31.21 -105.69)"/><path class="cls-1" d="M429.14,310.31l-.51.07a5.8,5.8,0,0,0-.95-1.95q-10.05-17.32-20.13-34.65-11.81-20.32-23.62-40.65c-2.92-5-5.8-10.08-8.69-15.12a5.13,5.13,0,0,1,1.95-.16c2.24,0,4.49,0,6.73-.06q13.89,0,27.8,0c7,0,14-.05,21-.08,2.38,0,4.76.06,7.14.06l39.53,0c2.61,0,2.62,0,1.34,2.24q-9,15.72-18.08,31.43c-4.38,7.62-8.72,15.27-13.1,22.89-4.71,8.2-9.46,16.38-14.18,24.57-2,3.43-4,6.87-5.95,10.31A2.47,2.47,0,0,0,429.14,310.31Z" transform="translate(-31.21 -105.69)"/><path class="cls-1" d="M460.58,183.24c3.37,4.08,4.65,5.58,6.55,7.91.84,1,1.65,2.06,2.43,3.12a42.07,42.07,0,0,0,3.12,4.06,25.53,25.53,0,0,1,2.63,4.15c1.27,2,2.79,3.82,4.06,5.83,1.66,2.62,3,5.42,4.63,8.05,1,1.56,1.95,3.11,2.85,4.7.72,1.26.94,2.75,1.73,4" transform="translate(-31.21 -105.69)"/><path class="cls-1" d="M453.84,176.1" transform="translate(-31.21 -105.69)"/><path class="cls-1" d="M469.33,196.47" transform="translate(-31.21 -105.69)"/><path class="cls-1" d="M471.38,199.09" transform="translate(-31.21 -105.69)"/><path class="cls-1" d="M500.74,255.93c.48,2.05,1.16,4,1.77,6.05,1.47,4.85,2.41,9.82,3.44,14.78,1.21,5.88,1.47,11.85,2,17.8a216,216,0,0,1,.56,21.73,24,24,0,0,1-.66,6.42" transform="translate(-31.21 -105.69)"/><path class="cls-1" d="M500.64,259.43" transform="translate(-31.21 -105.69)"/><path class="cls-1" d="M488.58,225a80,80,0,0,1,5.53,11.55c1.84,4.78,3.66,9.57,5.4,14.4.57,1.59,1.37,3.15,1.23,4.94" transform="translate(-31.21 -105.69)"/><path class="cls-1" d="M507.86,322.71c-.13,3.17-.2,6.33-.51,9.07-.19,2.29,1.06,10.93.51,13.16" transform="translate(-31.21 -105.69)"/><path class="cls-1" d="M506.21,338.58" transform="translate(-31.21 -105.69)"/><path class="cls-1" d="M445.61,170.63c.3,0,14.9,12.39,15,12.61C460.36,183.17,445.66,170.87,445.61,170.63Z" transform="translate(-31.21 -105.69)"/><path class="cls-1" d="M445.9,170.93" transform="translate(-31.21 -105.69)"/><path class="cls-1" d="M160,403.73c-.16-.09-.31-.24-.48-.25-.81-.07-1.06-.36-.49-1.06a2.87,2.87,0,0,0,.28-.48l30-48.94a9.17,9.17,0,0,0,.41-.9,49.57,49.57,0,0,1,2.93-4.55c2.09-3.37,4.15-6.75,6.22-10.14l16.2-26.56a.87.87,0,0,0,.22,0c.45.81.89,1.63,1.35,2.43l14.76,25.38q14.7,25.29,29.4,50.6c2.69,4.63,5.33,9.29,8,13.93-.78,0-1.57.11-2.36.11-4.41,0-8.82.06-13.24.09-.26,0-.52-.07-.78-.07l-38.55,0a9.3,9.3,0,0,0-1.17.13c-1.51,0-3-.11-4.53-.1-5.65,0-11.3-.16-16.94.07a7,7,0,0,0-.79-.08q-14.24,0-28.46.07A3.68,3.68,0,0,0,160,403.73Z" transform="translate(-31.21 -105.69)"/><path class="cls-1" d="M215.29,310.9a.87.87,0,0,1-.22,0q-4.56-7.87-9.13-15.75c-1.93-3.3-3.91-6.58-5.84-9.88-2.72-4.67-5.42-9.36-8.14-14-2-3.48-4-7-6.09-10.43-1.5-2.54-3.05-5.06-4.58-7.59a60.7,60.7,0,0,0-4-7.22c-2.59-4.53-5.27-9-7.9-13.49q-3.65-6.22-7.26-12.48c-.92-1.59-.85-1.76.93-1.76,5.29,0,10.59,0,15.88,0h50.86l15.39,0c3.48,0,7-.06,10.45-.09l12.78.09-30,52.37Q226.85,290.74,215.29,310.9Z" transform="translate(-31.21 -105.69)"/><path class="cls-1" d="M429.25,463a7.6,7.6,0,0,1,4.74-3.18C432.53,461,431.15,462.37,429.25,463Z" transform="translate(-31.21 -105.69)"/><path class="cls-1" d="M375.18,500.31a2.69,2.69,0,0,1-2.2.6,4,4,0,0,1,2.22-.58Z" transform="translate(-31.21 -105.69)"/><path class="cls-1" d="M359.73,126.77c-3-.12-5.86-.79-8.78-1.19-2.67-.37-5.32-.79-8-1.18-.77-.35-20.15-1.56-19.9-1.52" transform="translate(-31.21 -105.69)"/><path class="cls-1" d="M376.76,131.7" transform="translate(-31.21 -105.69)"/><path class="cls-1" d="M329.07,122.29" transform="translate(-31.21 -105.69)"/><path class="cls-1" d="M425.66,155" transform="translate(-31.21 -105.69)"/><path class="cls-1" d="M445.89,170.92c-22.29-22.15-59.88-38.15-64.61-39" transform="translate(-31.21 -105.69)"/><path class="cls-1" d="M375,217.81a1.49,1.49,0,0,0,.29.2c2.89,5,5.77,10.09,8.69,15.12q11.81,20.34,23.62,40.65,10.06,17.33,20.13,34.65a5.8,5.8,0,0,1,.95,1.95c-3,5.23-5.92,10.48-8.91,15.7Q398,363.94,376.31,401.8l-.7,1.2v0l-19.84,0c-25.52,0-51,0-76.56.15-3.36,0-6.73,0-10.09.24a.94.94,0,0,0-.32-.15c-2.66-4.64-5.3-9.3-8-13.93q-14.69-25.31-29.4-50.6l-14.76-25.38c-.46-.8-.9-1.62-1.35-2.43q11.55-20.16,23.09-40.32l30-52.37.17,0c.79,0,1.59.09,2.38.09,8.4,0,16.81-.07,25.22-.08q24.91,0,49.84-.06l26.41,0A5.75,5.75,0,0,0,375,217.81Z" transform="translate(-31.21 -105.69)"/><path class="cls-1" d="M205.93,218.19h-1.2" transform="translate(-31.21 -105.69)"/><path class="cls-1" d="M269.11,403.39c3.36-.22,6.73-.23,10.09-.24,25.52-.12,51-.11,76.56-.15l19.84,0a85.45,85.45,0,0,1-4.33,7.77q-9.43,16.42-18.93,32.8-10.17,17.6-20.34,35.19c-.23.4-.39.84-.58,1.26-1.61,1.94-2.59,4.27-3.9,6.4-1.1,1.81-2.1,3.67-3.17,5.49-.66,1.11-.94,1.12-1.61,0-5-8.18-9.89-16.39-14.93-24.53-1.72-2.79-3.69-5.43-5.26-8.32-2.15-3.93-4.45-7.77-6.83-11.57-3.87-6.21-7.54-12.54-11.58-18.66-3-4.54-5.67-9.32-8.5-14-.4-.67-.87-1.3-1.31-1.95-.15-1.36-1.1-2.32-1.74-3.43A56.73,56.73,0,0,1,269.11,403.39Z" transform="translate(-31.21 -105.69)"/><path class="cls-1" d="M375,217.81a5.75,5.75,0,0,1-2.54.28l-26.41,0q-24.92,0-49.84.06c-8.41,0-16.82.06-25.22.08-.79,0-1.59-.06-2.38-.09a44.54,44.54,0,0,1,3.64-6.77c2.62-4.66,5.35-9.26,8-13.9q6-10.45,12-20.92,4.83-8.42,9.66-16.83a3.31,3.31,0,0,0,.62-1.44,17.79,17.79,0,0,0,1.18-1.83c2.31-4.75,5.24-9.13,7.87-13.69q4.6-8,9.19-16c.22-.38.32-.89.95-1.08a21.55,21.55,0,0,1,2.55,4.13q12,20.66,23.93,41.37,12.61,21.79,25.25,43.59A16,16,0,0,1,375,217.81Z" transform="translate(-31.21 -105.69)"/></svg>